<svg width="16" height="17" viewBox="0 0 16 17" fill="none" xmlns="http://www.w3.org/2000/svg">
<path fill-rule="evenodd" clip-rule="evenodd" d="M7.38114 12.6187C7.03943 12.277 7.03943 11.723 7.38114 11.3813L12.8811 5.88126C13.2228 5.53955 13.7769 5.53955 14.1186 5.88126C14.4603 6.22297 14.4603 6.77699 14.1186 7.1187L8.61857 12.6187C8.27686 12.9604 7.72284 12.9604 7.38114 12.6187Z" fill="#4E4EE2"/>
<path fill-rule="evenodd" clip-rule="evenodd" d="M1.88128 5.88128C2.22299 5.53957 2.77701 5.53957 3.11872 5.88128L8.61872 11.3813C8.96043 11.723 8.96028 12.277 8.61857 12.6187C8.27686 12.9604 7.72284 12.9604 7.38114 12.6187L1.88128 7.11872C1.53957 6.77701 1.53957 6.22299 1.88128 5.88128Z" fill="#4E4EE2"/>
</svg>
