<svg width="16" height="17" viewBox="0 0 16 17" fill="none" xmlns="http://www.w3.org/2000/svg">
<path fill-rule="evenodd" clip-rule="evenodd" d="M11.6187 8.38114C11.277 8.03943 10.723 8.03943 10.3813 8.38114L4.88128 13.8811C4.53957 14.2228 4.53957 14.7769 4.88128 15.1186C5.22299 15.4603 5.77701 15.4603 6.11872 15.1186L11.6187 9.61857C11.9604 9.27686 11.9604 8.72284 11.6187 8.38114Z" fill="#4E4EE2"/>
<path fill-rule="evenodd" clip-rule="evenodd" d="M4.8813 2.88128C4.5396 3.22299 4.5396 3.77701 4.8813 4.11872L10.3813 9.61872C10.723 9.96043 11.277 9.96028 11.6187 9.61857C11.9604 9.27686 11.9604 8.72284 11.6187 8.38114L6.11874 2.88128C5.77703 2.53957 5.22301 2.53957 4.8813 2.88128Z" fill="#4E4EE2"/>
</svg>
