<svg width="120" height="75" viewBox="0 0 120 75" fill="none" xmlns="http://www.w3.org/2000/svg">
<path fill-rule="evenodd" clip-rule="evenodd" d="M4.27141e-06 74.2925H119.691V14.8139L103.906 6.326L95.9841 0H4.79383C2.14255 0.00320968 -0.00349423 2.15749 4.27141e-06 4.81103V74.2925Z" fill="#22202E"/>
<path fill-rule="evenodd" clip-rule="evenodd" d="M119.883 14.3536L98.0495 0.548188C95.7142 -0.93031 92.6705 0.75565 92.6705 3.52882V15.1129H92.3976L69.3652 0.548188C67.0288 -0.93031 63.9863 0.75565 63.9863 3.52882V14.8421L41.379 0.548188C39.0411 -0.93031 36 0.75565 36 3.52882V74.4337H119.881V14.3536H119.883Z" fill="#9698AA"/>
<path d="M50.9791 25.3983C50.2429 25.3983 49.6495 25.8014 49.6495 26.7088C49.6495 27.6161 50.2429 28.0193 50.9791 28.0193C51.7153 28.0193 52.3075 27.5957 52.3075 26.7099C52.3075 25.8242 51.713 25.3994 50.9791 25.3994V25.3983ZM50.9791 27.3958C50.6496 27.3958 50.403 27.1494 50.403 26.7088C50.403 26.2307 50.6496 26.0206 50.9791 26.0206C51.3086 26.0206 51.554 26.2296 51.554 26.7088C51.554 27.1494 51.3075 27.3958 50.9791 27.3958ZM55.7686 25.4222C55.7686 25.4358 55.7789 25.446 55.7927 25.446H56.3527C56.3976 25.446 56.4333 25.4823 56.4333 25.5244V26.0013C56.4333 26.0149 56.423 26.0263 56.4091 26.0263H55.7939C55.7801 26.0263 55.7697 26.0377 55.7697 26.0513V26.9768C55.7697 27.3322 55.9057 27.4378 56.1338 27.4378C56.2409 27.4378 56.408 27.3731 56.4333 27.3731C56.4472 27.3731 56.4587 27.3845 56.4587 27.397V27.8535C56.4587 27.8875 56.4379 27.9114 56.4172 27.9227C56.3158 27.9773 56.1441 28.0136 55.893 28.0136C55.4529 28.0136 55.0427 27.7956 55.0427 27.096V25.4857C55.0427 25.3427 55.0992 25.2075 55.189 25.111C55.3077 24.9815 55.6914 24.7397 55.7409 24.7397C55.7628 24.7397 55.7709 24.7453 55.7709 24.7658V25.421L55.7686 25.4222ZM46.8763 25.5278C46.8763 25.4835 46.9132 25.4471 46.9593 25.4471H47.9282C48.8799 25.4471 49.373 26.0104 49.373 26.7395C49.373 27.4685 48.8211 27.9738 47.9121 27.9738H47.6287C47.6148 27.9738 47.6033 27.9852 47.6033 27.9988V29.181C47.6033 29.2003 47.5953 29.2071 47.5734 29.2071C47.5238 29.2071 47.1402 28.9652 47.0215 28.8358C46.9316 28.7392 46.8752 28.603 46.8752 28.461V25.5289L46.8763 25.5278ZM48.6541 26.7031C48.6541 26.3931 48.4501 26.1024 47.9132 26.1024H47.6287C47.6148 26.1024 47.6045 26.1137 47.6045 26.1262V27.2925C47.6045 27.3061 47.616 27.3175 47.6287 27.3175H47.9282C48.5677 27.3175 48.6541 26.8791 48.6541 26.7031ZM54.666 27.1948C54.666 27.7274 54.2777 28.0193 53.5207 28.0193C53.0875 28.0193 52.6301 27.8694 52.6267 27.8682C52.5921 27.8557 52.5702 27.8251 52.5702 27.7899V27.2936C52.5702 27.2777 52.584 27.2641 52.6013 27.2641C52.6036 27.2641 52.6105 27.2652 52.6117 27.2652C52.773 27.3163 53.2972 27.4447 53.576 27.4447C53.7408 27.4447 53.8272 27.4208 53.8825 27.3663C53.9205 27.3288 53.9378 27.2891 53.9378 27.2402C53.9378 27.0779 53.7316 27.0324 53.5311 26.9893C53.5057 26.9836 53.5173 26.987 53.4493 26.9711C53.0115 26.8689 52.5495 26.7633 52.5495 26.2069C52.5495 25.9604 52.6543 25.7549 52.8502 25.6129C53.046 25.471 53.3283 25.396 53.667 25.396C53.9712 25.396 54.333 25.4948 54.454 25.5323C54.492 25.5448 54.5139 25.5777 54.5139 25.6107V26.1058C54.5127 26.1285 54.4885 26.1387 54.4712 26.133C54.1244 26.0047 53.8065 25.9604 53.5795 25.9604C53.3986 25.9604 53.2811 26.0377 53.2811 26.158C53.2811 26.2966 53.4527 26.334 53.6693 26.3817C53.6958 26.3874 53.8145 26.4135 53.8456 26.4203C54.0231 26.459 54.2062 26.4987 54.3572 26.5952C54.5646 26.7292 54.666 26.9246 54.666 27.1914V27.1948ZM58.5901 27.9648C58.5809 27.9648 58.574 27.9579 58.574 27.9489V26.4431C58.574 26.1081 58.4588 25.9661 58.188 25.9661C58.0913 25.9661 57.9749 26.0013 57.8585 26.066C57.7433 26.1319 57.6535 26.1864 57.6212 26.2057C57.612 26.2114 57.6028 26.2262 57.6028 26.2387V27.9489C57.6028 27.9568 57.5958 27.9648 57.5866 27.9648H56.9057C56.8965 27.9648 56.8896 27.9579 56.8896 27.9489V25.5266C56.8896 25.4869 56.923 25.4551 56.9633 25.4551H57.5878C57.597 25.4551 57.6039 25.4619 57.6039 25.471V25.6606C57.6039 25.672 57.6131 25.6811 57.6258 25.6811C57.6304 25.6811 57.6362 25.6788 57.6385 25.6777L57.6592 25.6629C57.7353 25.605 57.8516 25.5403 57.9311 25.5096C58.1016 25.4449 58.286 25.4085 58.4358 25.4085C58.9922 25.4085 59.286 25.7231 59.286 26.3193V27.9477C59.286 27.9568 59.2791 27.9636 59.2699 27.9636H58.5901V27.9648ZM59.8471 27.9648C59.8391 27.9648 59.8322 27.9579 59.8322 27.9489V24.24C59.8322 24.2264 59.8345 24.223 59.8529 24.223C59.8955 24.223 60.2746 24.458 60.3979 24.592C60.4889 24.6908 60.5407 24.826 60.5407 24.9611V27.9489C60.5407 27.9568 60.5338 27.9648 60.5257 27.9648H59.8471ZM50.9791 21.518C50.9664 21.518 50.9538 21.5214 50.9399 21.5305C50.8259 21.6156 50.7245 21.7144 50.6369 21.8246C50.6116 21.853 50.6116 21.8859 50.6381 21.92C50.721 22.0256 50.8166 22.1198 50.9203 22.2016C50.9399 22.2164 50.9595 22.2243 50.9791 22.2243C50.9987 22.2243 51.0183 22.2164 51.0379 22.2016C51.1427 22.121 51.2372 22.0267 51.3201 21.9211C51.3466 21.887 51.3466 21.8541 51.3201 21.8234C51.2349 21.7144 51.1335 21.6156 51.0217 21.5327C51.0044 21.5225 50.9918 21.518 50.9791 21.518ZM50.9791 22.4276C50.9238 22.4276 50.8662 22.4287 50.8063 22.4321C50.7855 22.4321 50.766 22.4401 50.751 22.4548C50.7291 22.4764 50.7222 22.5093 50.7222 22.5321C50.7245 22.6479 50.7314 23.2611 50.7371 23.6506C50.7395 23.8391 50.7418 23.9754 50.7418 23.9799C50.7418 24.0072 50.7625 24.0662 50.8259 24.0662H51.1346C51.1796 24.0662 51.2118 24.0345 51.2187 23.9834C51.2187 23.9822 51.2187 23.9811 51.2187 23.9799C51.2187 23.9709 51.2257 23.4496 51.2372 22.5502V22.5321C51.2372 22.515 51.2326 22.4787 51.2084 22.4548C51.1934 22.4401 51.1738 22.4321 51.1519 22.4321C51.0932 22.4299 51.0356 22.4276 50.9814 22.4276H50.9791ZM51.7603 22.5105C51.69 22.5105 51.6312 22.5491 51.6013 22.6161C51.5125 22.8114 51.448 22.9886 51.3858 23.2089C51.3789 23.235 51.3812 23.2566 51.3939 23.2725C51.4019 23.2827 51.4192 23.2963 51.4526 23.2963H51.6934C51.7487 23.2963 51.7683 23.2679 51.7752 23.2441C51.8144 23.1123 51.8432 23.0351 51.8927 22.9261C51.8927 22.9261 51.8974 22.9182 51.9123 22.9182C51.9181 22.9182 51.9239 22.9182 51.9296 22.9204L52.0517 22.9602C52.0656 22.9647 52.0748 22.9772 52.0794 22.9863C52.0886 23.0045 52.0898 23.0294 52.0829 23.0476C52.0817 23.051 51.8351 23.729 51.7626 23.955C51.751 23.9902 51.7533 24.0174 51.7683 24.0367C51.7821 24.0549 51.8052 24.064 51.8374 24.064H52.1347C52.1842 24.064 52.2153 24.0447 52.2303 24.0061C52.2407 23.9765 52.2568 23.9345 52.2753 23.8846L52.2822 23.8652C52.372 23.6188 52.5068 23.2463 52.5356 23.1407C52.584 22.9613 52.5979 22.7649 52.3306 22.6672C52.2453 22.6365 52.1647 22.6093 52.0909 22.5877C51.9964 22.5593 51.9066 22.5389 51.8271 22.5196L51.8167 22.5173C51.7971 22.5127 51.7787 22.5105 51.7614 22.5105H51.7603ZM50.1968 22.5105C50.1795 22.5105 50.1611 22.5127 50.1438 22.5162L50.1311 22.5196C50.0516 22.5377 49.9618 22.5593 49.8673 22.5877C49.7947 22.6093 49.714 22.6365 49.6276 22.6672C49.3603 22.7649 49.3742 22.9613 49.4226 23.1407C49.4502 23.2429 49.5769 23.5927 49.6829 23.8846C49.7014 23.9345 49.7164 23.9765 49.7267 24.0061C49.7405 24.0447 49.7728 24.064 49.8223 24.064H50.1196C50.1599 24.064 50.1784 24.0492 50.1887 24.0356C50.2037 24.0163 50.2049 23.9879 50.1945 23.9538C50.1219 23.7312 49.8753 23.0533 49.873 23.0465C49.8661 23.0283 49.8673 23.0033 49.8765 22.9852C49.8811 22.9761 49.8892 22.9636 49.9042 22.9579L50.0274 22.9182C50.0274 22.9182 50.0378 22.9159 50.0436 22.9159C50.0562 22.9159 50.062 22.9216 50.0631 22.9238C50.1138 23.0351 50.1426 23.1123 50.1807 23.2418C50.1876 23.2657 50.2083 23.294 50.2625 23.294H50.5033C50.5298 23.294 50.5493 23.2861 50.562 23.2702C50.5735 23.2543 50.577 23.2339 50.5689 23.2066C50.5056 22.984 50.441 22.8069 50.3535 22.6127C50.3397 22.5809 50.2947 22.5071 50.1945 22.5071L50.1968 22.5105ZM52.0748 24.29H49.8857C49.8085 24.29 49.744 24.3536 49.744 24.4285V24.6999C49.744 24.7851 49.7809 24.826 49.8569 24.826H52.1036C52.1796 24.826 52.2165 24.7851 52.2165 24.6999V24.4285C52.2165 24.3536 52.152 24.29 52.0748 24.29ZM62.6157 26.3886C62.6134 24.8737 59.7262 22.2504 56.6499 20.5788C53.1013 18.6506 49.0631 17.5138 47.7324 18.2361C46.2161 19.0605 45.3855 23.1771 45.3843 26.3886C45.3843 29.6261 46.1678 33.6905 47.7324 34.541C49.1506 35.311 53.0126 34.1742 56.6499 32.1983C59.7745 30.5006 62.6134 27.9773 62.6157 26.3886ZM48.7981 17.281C51.0379 17.281 54.6256 18.6767 57.0117 19.9724C58.377 20.714 59.9255 21.7962 61.1237 22.8977C62.2735 23.9538 63.3589 25.2689 63.36 26.3886C63.3589 27.4435 62.489 28.6813 61.0903 29.9441C59.9036 31.0161 58.3609 32.07 57.0106 32.8047C54.7063 34.0573 51.1934 35.5199 48.8776 35.5199C48.2485 35.5199 47.7312 35.4132 47.3418 35.2008C46.3164 34.6432 45.6597 33.1431 45.2714 31.6725C44.8543 30.0951 44.64 28.1976 44.64 26.3886C44.64 24.6193 44.8716 22.7172 45.276 21.1705C45.768 19.2876 46.4823 18.0442 47.3429 17.5763C47.7047 17.3798 48.1944 17.2799 48.7981 17.2799" fill="white"/>
<path fill-rule="evenodd" clip-rule="evenodd" d="M64.32 74.2749H71.419V40.7999H64.3214L64.32 74.2749ZM53.9891 60.9599C52.5369 60.9599 51.36 62.1417 51.36 63.5992V74.4975H56.6197V63.5992C56.6197 62.1417 55.4416 60.9599 53.9891 60.9599V60.9599Z" fill="#515165"/>
<path fill-rule="evenodd" clip-rule="evenodd" d="M71.0399 74.2749H78.1375V40.7999H71.0399V74.2749Z" fill="#7C7E95"/>
<path fill-rule="evenodd" clip-rule="evenodd" d="M78.24 74.2749H85.3376V40.7999H78.24V74.2749Z" fill="#515165"/>
<path fill-rule="evenodd" clip-rule="evenodd" d="M84.96 74.2749H92.0576V40.7999H84.96V74.2749Z" fill="#7C7E95"/>
<path fill-rule="evenodd" clip-rule="evenodd" d="M92.1599 74.2749H99.2575V40.7999H92.1599V74.2749Z" fill="#515165"/>
<path fill-rule="evenodd" clip-rule="evenodd" d="M99.36 74.2749H106.458V40.7999H99.36V74.2749Z" fill="#7C7E95"/>
<path fill-rule="evenodd" clip-rule="evenodd" d="M106.56 74.2749H113.659V40.7999H106.561L106.56 74.2749Z" fill="#515165"/>
</svg>
