<svg width="18" height="24" viewBox="0 0 18 24" fill="none" xmlns="http://www.w3.org/2000/svg">
<path fill-rule="evenodd" clip-rule="evenodd" d="M8.66667 5.44102C6.96526 5.44102 5.58088 6.85485 5.58088 8.59244C5.58088 10.3289 6.96526 11.7427 8.66667 11.7427C10.3681 11.7427 11.7525 10.3289 11.7525 8.59244C11.7525 6.85485 10.3681 5.44102 8.66667 5.44102ZM8.66667 13.139C6.21149 13.139 4.2136 11.0998 4.2136 8.59244C4.2136 6.08388 6.21149 4.0435 8.66667 4.0435C11.1218 4.0435 13.1197 6.08388 13.1197 8.59244C13.1197 11.0998 11.1218 13.139 8.66667 13.139ZM8.66667 1.39752C4.64237 1.39752 1.36842 4.7411 1.36842 8.85098C1.36842 13.8832 6.96526 20.0754 8.65754 21.8328C10.343 20.023 15.9649 13.6259 15.9649 8.85098C15.9649 4.7411 12.691 1.39752 8.66667 1.39752ZM8.66667 23.5238C8.4979 23.5238 8.32912 23.4621 8.19684 23.334C7.86272 23.0114 0 15.353 0 8.85098C0 3.97013 3.8886 0 8.66667 0C13.4447 0 17.3333 3.97013 17.3333 8.85098C17.3333 15.0245 9.48088 22.9881 9.14675 23.3235C9.01447 23.4574 8.84 23.5238 8.66667 23.5238Z" fill="#3440B6"/>
</svg>
