<svg width="19" height="14" viewBox="0 0 19 14" fill="none" xmlns="http://www.w3.org/2000/svg">
<path fill-rule="evenodd" clip-rule="evenodd" d="M16.1043 1.99218C16.418 1.99218 16.6927 1.8751 16.9094 1.69737C17.3131 1.37069 17.9776 0.314171 18.019 0.179479C18.0315 0.138665 18.0683 0.000200515 17.9332 0.000200515H14.766C4.23008 0.000200515 4.12927 0.000200517 2.34852 0.000200517C1.90389 0.000200517 1.42996 -0.0154411 1.12759 0.229573C0.724664 0.555594 0.0702298 1.61519 0.0188752 1.75049C-0.0353095 1.89325 0.0382392 1.99218 0.100055 1.99218H16.1043Z" fill="#4E4EE2"/>
<path fill-rule="evenodd" clip-rule="evenodd" d="M16.1043 13.9922C16.418 13.9922 16.6927 13.8751 16.9094 13.6974C17.3131 13.3707 17.9776 12.3142 18.019 12.1795C18.0315 12.1387 18.0683 12.0002 17.9332 12.0002H14.766C4.23008 12.0002 4.12927 12.0002 2.34852 12.0002C1.90389 12.0002 1.42996 11.9846 1.12759 12.2296C0.724664 12.5556 0.0702298 13.6152 0.0188752 13.7505C-0.0353095 13.8932 0.0382392 13.9922 0.100055 13.9922H16.1043Z" fill="#4E4EE2"/>
<path fill-rule="evenodd" clip-rule="evenodd" d="M16.1043 7.99218C16.418 7.99218 16.6927 7.8751 16.9094 7.69737C17.3131 7.37069 17.9776 6.31417 18.019 6.17948C18.0315 6.13867 18.0683 6.0002 17.9332 6.0002H14.766C4.23008 6.0002 4.12927 6.0002 2.34852 6.0002C1.90389 6.0002 1.42996 5.98456 1.12759 6.22957C0.724664 6.55559 0.0702298 7.61519 0.0188752 7.75049C-0.0353095 7.89325 0.0382392 7.99218 0.100055 7.99218H16.1043Z" fill="#4E4EE2"/>
</svg>
