<svg width="111" height="142" viewBox="0 0 111 142" fill="none" xmlns="http://www.w3.org/2000/svg">
<path fill-rule="evenodd" clip-rule="evenodd" d="M37.3238 46.6515C37.3238 50.2588 34.3984 53.1828 30.7904 53.1828C27.1834 53.1828 24.2581 50.2588 24.2581 46.6515C24.2581 43.0441 27.1834 40.1201 30.7904 40.1201C34.3984 40.1201 37.3238 43.0441 37.3238 46.6515" fill="#CD8857"/>
<path fill-rule="evenodd" clip-rule="evenodd" d="M37.3238 46.6515C37.3238 50.2588 34.3984 53.1828 30.7904 53.1828C27.1834 53.1828 24.2581 50.2588 24.2581 46.6515C24.2581 43.0441 27.1834 40.1201 30.7904 40.1201C34.3984 40.1201 37.3238 43.0441 37.3238 46.6515Z" stroke="#CD8857" stroke-width="1.9404"/>
<path fill-rule="evenodd" clip-rule="evenodd" d="M34.4437 62.0123C34.4437 65.6196 31.5184 68.5436 27.9104 68.5436C24.3034 68.5436 21.3781 65.6196 21.3781 62.0123C21.3781 58.4039 24.3034 55.48 27.9104 55.48C31.5184 55.48 34.4437 58.4039 34.4437 62.0123" fill="#CD8857"/>
<path fill-rule="evenodd" clip-rule="evenodd" d="M34.4437 62.0123C34.4437 65.6196 31.5184 68.5436 27.9104 68.5436C24.3034 68.5436 21.3781 65.6196 21.3781 62.0123C21.3781 58.4039 24.3034 55.48 27.9104 55.48C31.5184 55.48 34.4437 58.4039 34.4437 62.0123Z" stroke="#CD8857" stroke-width="1.9404"/>
<path fill-rule="evenodd" clip-rule="evenodd" d="M34.4437 75.9315C34.4437 79.5389 31.5184 82.4638 27.9104 82.4638C24.3034 82.4638 21.3781 79.5389 21.3781 75.9315C21.3781 72.3241 24.3034 69.4001 27.9104 69.4001C31.5184 69.4001 34.4437 72.3241 34.4437 75.9315" fill="#CD8857"/>
<path fill-rule="evenodd" clip-rule="evenodd" d="M34.4437 75.9315C34.4437 79.5389 31.5184 82.4638 27.9104 82.4638C24.3034 82.4638 21.3781 79.5389 21.3781 75.9315C21.3781 72.3241 24.3034 69.4001 27.9104 69.4001C31.5184 69.4001 34.4437 72.3241 34.4437 75.9315Z" stroke="#CD8857" stroke-width="1.9404"/>
<path fill-rule="evenodd" clip-rule="evenodd" d="M38.7628 92.2523C38.7628 95.8596 35.8383 98.7836 32.2304 98.7836C28.6234 98.7836 25.698 95.8596 25.698 92.2523C25.698 88.6439 28.6234 85.72 32.2304 85.72C35.8383 85.72 38.7628 88.6439 38.7628 92.2523" fill="#CD8857"/>
<path fill-rule="evenodd" clip-rule="evenodd" d="M38.7628 92.2523C38.7628 95.8596 35.8383 98.7836 32.2304 98.7836C28.6234 98.7836 25.698 95.8596 25.698 92.2523C25.698 88.6439 28.6234 85.72 32.2304 85.72C35.8383 85.72 38.7628 88.6439 38.7628 92.2523Z" stroke="#CD8857" stroke-width="1.9404"/>
<path fill-rule="evenodd" clip-rule="evenodd" d="M37.3126 106.513H74.55C78.0483 106.513 80.8846 103.677 80.8846 100.179V18.1336C80.8846 14.6359 78.0483 11.8 74.55 11.8H37.3126C33.8143 11.8 30.978 14.6359 30.978 18.1336V100.179C30.978 103.677 33.8143 106.513 37.3126 106.513" fill="#363546"/>
<path fill-rule="evenodd" clip-rule="evenodd" d="M33.858 97.8702H77.202V20.9202H33.858V97.8702Z" fill="#F56900"/>
<path d="M52.4117 58.0001C51.6108 58.0001 50.9665 58.4443 50.9665 59.4446C50.9665 60.4226 51.6108 60.8892 52.4117 60.8892C53.2099 60.8892 53.8556 60.4226 53.8556 59.4446C53.8556 58.4443 53.2099 58.0001 52.4117 58.0001ZM52.4117 60.2022C52.0536 60.2022 51.7856 59.9301 51.7856 59.4446C51.7856 58.9165 52.0536 58.6856 52.4117 58.6856C52.7678 58.6856 53.0364 58.9165 53.0364 59.4446C53.0364 59.9301 52.7678 60.2022 52.4117 60.2022ZM57.617 58.0253C57.617 58.04 57.6289 58.0518 57.6436 58.0518H58.2515C58.2998 58.0518 58.339 58.0917 58.339 58.1386V58.6646C58.339 58.68 58.3271 58.6919 58.3124 58.6919H57.6436C57.6289 58.6919 57.617 58.7038 57.617 58.7185V59.7398C57.617 60.1316 57.7653 60.2477 58.013 60.2477C58.1291 60.2477 58.3117 60.1764 58.3383 60.1764C58.353 60.1764 58.3655 60.1882 58.3655 60.2029V60.7066C58.3655 60.7444 58.3439 60.771 58.3201 60.7836C58.2095 60.843 58.0242 60.8836 57.7499 60.8836C57.2708 60.8836 56.8259 60.6423 56.8259 59.8721V58.0959C56.8259 57.9385 56.8874 57.7888 56.9846 57.6825C57.1141 57.5398 57.5303 57.2726 57.5842 57.2726C57.6072 57.2726 57.617 57.2795 57.617 57.3012V58.0253ZM47.9522 58.1414C47.9522 58.0917 47.992 58.0525 48.0417 58.0525H49.0952C50.1298 58.0525 50.6657 58.6737 50.6657 59.4775C50.6657 60.282 50.0662 60.8388 49.0784 60.8388H48.7706C48.7559 60.8388 48.7433 60.8507 48.7433 60.8661V62.1694C48.7433 62.191 48.7342 62.198 48.7105 62.198C48.6566 62.198 48.2404 61.9308 48.1109 61.7881C48.0137 61.6811 47.9522 61.5314 47.9522 61.3747V58.1414ZM49.8843 59.4369C49.8843 59.0949 49.6632 58.7745 49.0791 58.7745H48.7692C48.7545 58.7745 48.7426 58.7864 48.7426 58.8018V60.0875C48.7426 60.1022 48.7545 60.1148 48.7692 60.1148H49.0945C49.7905 60.1148 49.8843 59.6314 49.8843 59.4369ZM56.4187 59.9798C56.4187 60.5667 55.9969 60.8892 55.1742 60.8892C54.7034 60.8892 54.2061 60.7241 54.2019 60.7227C54.1648 60.7087 54.1403 60.6751 54.1403 60.6367V60.0896C54.1403 60.0714 54.1557 60.0574 54.1746 60.0574C54.1774 60.0574 54.1851 60.0588 54.1858 60.0595C54.3614 60.1162 54.9308 60.2575 55.2337 60.2575C55.4128 60.2575 55.5065 60.2309 55.5667 60.1708C55.6079 60.1295 55.6268 60.0854 55.6268 60.0322C55.6268 59.8532 55.4023 59.8035 55.1847 59.7559C55.1574 59.7503 55.1693 59.7531 55.0959 59.7356C54.6195 59.623 54.1172 59.5069 54.1172 58.8934C54.1172 58.6213 54.2312 58.3953 54.4446 58.2386C54.6573 58.0819 54.9644 58.0001 55.3323 58.0001C55.6632 58.0001 56.0557 58.1092 56.1872 58.1512C56.2284 58.1645 56.2522 58.2008 56.2522 58.2379V58.7836C56.2508 58.8088 56.2242 58.8206 56.2061 58.8136C55.829 58.6723 55.4841 58.6227 55.2365 58.6227C55.0399 58.6227 54.9126 58.708 54.9126 58.8402C54.9126 58.9927 55.0987 59.034 55.3344 59.0872C55.3631 59.0935 55.4918 59.1228 55.5254 59.1298C55.7185 59.1725 55.9178 59.2159 56.0815 59.3229C56.3082 59.4712 56.4187 59.686 56.4187 59.9798ZM60.6838 60.829C60.6747 60.829 60.667 60.8213 60.667 60.8122V59.1522C60.667 58.7836 60.5418 58.6262 60.248 58.6262C60.1431 58.6262 60.0165 58.6653 59.8905 58.7367C59.7653 58.8094 59.6674 58.8696 59.6324 58.8906C59.6226 58.8969 59.6121 58.9137 59.6121 58.927V60.8129C59.6121 60.822 59.6044 60.8297 59.5953 60.8297H58.8552C58.8461 60.8297 58.8377 60.822 58.8377 60.8129V58.1421C58.8377 58.0987 58.8734 58.063 58.9175 58.063H59.596C59.6051 58.063 59.6135 58.0707 59.6135 58.0798V58.2897C59.6135 58.3023 59.624 58.3128 59.6366 58.3128C59.6415 58.3128 59.6478 58.31 59.6499 58.3086L59.6723 58.2918C59.7548 58.2281 59.8822 58.1561 59.9675 58.1232C60.1529 58.0525 60.3529 58.0113 60.5152 58.0113C61.1203 58.0113 61.44 58.3589 61.44 59.0158V60.8115C61.44 60.8213 61.4323 60.8283 61.4225 60.8283H60.6838V60.829ZM62.0507 60.829C62.0416 60.829 62.0339 60.8213 62.0339 60.8122V56.722C62.0339 56.7073 62.0367 56.7031 62.057 56.7031C62.1032 56.7031 62.5159 56.9627 62.6495 57.1096C62.7489 57.2187 62.8055 57.367 62.8055 57.5167V60.8122C62.8055 60.8213 62.7978 60.829 62.7888 60.829H62.0507V60.829ZM52.411 53.7196C52.397 53.7196 52.3838 53.7238 52.3677 53.7336C52.2431 53.8273 52.1333 53.9357 52.0382 54.0575C52.0102 54.0889 52.0102 54.1253 52.0396 54.1631C52.1298 54.2799 52.2334 54.3841 52.3467 54.473C52.3677 54.4898 52.3887 54.4975 52.4103 54.4975C52.432 54.4975 52.453 54.4891 52.474 54.4723C52.5873 54.3834 52.6909 54.2792 52.7811 54.1631C52.8105 54.1253 52.8105 54.0889 52.7811 54.0554C52.6881 53.935 52.5782 53.8266 52.4565 53.735C52.439 53.7238 52.4257 53.7196 52.411 53.7196ZM52.411 54.722C52.3516 54.722 52.2886 54.7234 52.2236 54.7262C52.2005 54.7262 52.1795 54.7346 52.1634 54.7514C52.1403 54.7745 52.1312 54.8116 52.1312 54.836C52.1333 54.9641 52.1417 55.6398 52.1473 56.07C52.1501 56.2778 52.1515 56.4282 52.1522 56.4331C52.1522 56.4639 52.1746 56.5282 52.2438 56.5282H52.5789C52.6286 56.5282 52.6629 56.4933 52.6699 56.4373C52.6699 56.4359 52.6699 56.4345 52.6699 56.4331C52.6699 56.4226 52.6769 55.8483 52.6902 54.857V54.8374C52.6909 54.8186 52.6846 54.778 52.6587 54.7521C52.6426 54.7353 52.6216 54.7276 52.5971 54.7276C52.5342 54.7241 52.4712 54.722 52.411 54.722ZM53.261 54.8137C53.184 54.8137 53.1211 54.8563 53.0882 54.9298C52.9917 55.1445 52.9217 55.3404 52.8538 55.5839C52.8462 55.6125 52.849 55.6363 52.8622 55.6538C52.8713 55.6657 52.8895 55.6797 52.9259 55.6797H53.1875C53.247 55.6797 53.2687 55.6482 53.2771 55.6223C53.3197 55.4768 53.3505 55.3922 53.4051 55.2719C53.4058 55.2705 53.41 55.2628 53.4261 55.2628C53.4324 55.2628 53.4387 55.2635 53.445 55.2656L53.5779 55.3096C53.5933 55.3152 53.6031 55.3285 53.608 55.339C53.6177 55.3593 53.6191 55.3866 53.6122 55.4069C53.6108 55.4111 53.3435 56.1582 53.2638 56.4072C53.2519 56.4457 53.2533 56.4758 53.2694 56.4982C53.2841 56.5184 53.3092 56.5289 53.3442 56.5289H53.6681C53.7213 56.5289 53.7563 56.508 53.7716 56.4653C53.7835 56.4331 53.8003 56.3862 53.8199 56.331L53.8276 56.31C53.9248 56.0386 54.0725 55.6272 54.1039 55.5104C54.1571 55.3124 54.1718 55.0956 53.8815 54.9878C53.7891 54.9536 53.7017 54.9242 53.6212 54.8997C53.5191 54.8682 53.4205 54.8451 53.3337 54.8249L53.3232 54.8221C53.2995 54.8158 53.2799 54.8137 53.261 54.8137ZM51.5611 54.8137C51.5422 54.8137 51.5226 54.8158 51.5037 54.8207L51.4904 54.8235C51.4037 54.8437 51.3058 54.8668 51.2036 54.8983C51.1239 54.9228 51.0364 54.9522 50.9434 54.9864C50.6524 55.0942 50.6678 55.311 50.7209 55.509C50.751 55.6216 50.8881 56.0071 51.0043 56.3296C51.0245 56.3848 51.0406 56.4317 51.0525 56.4639C51.0679 56.5066 51.1029 56.5275 51.1561 56.5275H51.4799C51.5233 56.5275 51.5443 56.5108 51.5548 56.4968C51.5709 56.4751 51.5723 56.445 51.5604 56.4065C51.4813 56.161 51.2141 55.4132 51.2113 55.4062C51.2043 55.3859 51.2057 55.3593 51.2155 55.3383C51.2204 55.3278 51.2295 55.3145 51.2463 55.3089L51.3799 55.2649C51.3848 55.2635 51.3911 55.2628 51.3974 55.2628C51.4107 55.2628 51.417 55.2684 51.4184 55.2719C51.4736 55.395 51.5051 55.4803 51.5464 55.6223C51.5541 55.6489 51.5758 55.6797 51.6352 55.6797H51.8976C51.9263 55.6797 51.9479 55.6713 51.9612 55.6538C51.9745 55.6363 51.9773 55.6132 51.9689 55.5846C51.9004 55.3397 51.8304 55.1438 51.7346 54.9298C51.7185 54.8948 51.6702 54.8137 51.5611 54.8137ZM53.6024 56.7766H51.2232C51.14 56.7766 51.0693 56.8465 51.0693 56.9298V57.2292C51.0693 57.3229 51.1092 57.3684 51.1924 57.3684H53.6338C53.7164 57.3684 53.7563 57.3229 53.7563 57.2292V56.9298C53.7563 56.8465 53.6856 56.7766 53.6024 56.7766ZM65.0595 59.0914C65.0567 57.4209 61.9185 54.5275 58.5747 52.6843C54.7174 50.5569 50.3278 49.3034 48.8818 50.1001C47.2337 51.0095 46.3306 55.5489 46.3299 59.0914C46.3306 62.6625 47.1813 67.1438 48.8818 68.0819C50.4229 68.9311 54.6216 67.6776 58.5747 65.4985C61.971 63.6258 65.0567 60.843 65.0595 59.0914ZM50.0396 49.0466C52.474 49.0466 56.3739 50.5856 58.9672 52.0155C60.4509 52.8333 62.1347 54.0267 63.4372 55.2411C64.6873 56.4058 65.8667 57.856 65.8688 59.0914C65.8667 60.2547 64.9224 61.6195 63.4023 63.013C62.1116 64.1952 60.4355 65.3579 58.9679 66.1672C56.4628 67.5481 52.6447 69.1613 50.1277 69.1613C49.4436 69.1613 48.8825 69.0431 48.4586 68.8094C47.3442 68.1952 46.63 66.5401 46.2082 64.9186C45.7549 63.1788 45.5219 61.0865 45.5212 59.0921C45.5212 57.1403 45.7731 55.0431 46.2117 53.3376C46.7461 51.2607 47.5233 49.8903 48.4586 49.374C48.8511 49.1565 49.3834 49.0466 50.0396 49.0466Z" fill="#F7F7F8"/>
<path fill-rule="evenodd" clip-rule="evenodd" d="M91.7548 115.793C94.0501 112.458 95.674 108.737 96.5629 104.833C96.9492 103.135 97.1939 101.41 97.297 99.6694C99.0016 83.3827 94.1992 72.794 92.188 68.3785C88.4066 60.0772 88.9513 55.5671 89.6451 50.0969L90.4112 44.0512C82.072 43.2065 78.5925 48.4039 78.2343 52.975C77.6933 59.8935 85.4427 79.705 75.3718 87.9407C69.1976 92.9908 66.0603 101.894 64.6483 107.297L42.0179 107.369L60.3484 122.121L60.5387 122.005L69.0373 139.757H107.118L91.7548 115.793Z" fill="#CD8857"/>
<path fill-rule="evenodd" clip-rule="evenodd" d="M91.7548 115.793C94.0501 112.458 95.674 108.737 96.5629 104.833C96.9492 103.135 97.1939 101.41 97.297 99.6694C99.0016 83.3827 94.1992 72.794 92.188 68.3785C88.4066 60.0772 88.9513 55.5671 89.6451 50.0969L90.4112 44.0512C82.072 43.2065 78.5925 48.4039 78.2343 52.975C77.6933 59.8935 85.4427 79.705 75.3718 87.9407C69.1976 92.9908 66.0996 101.804 64.6876 107.206L42.0179 107.369L60.3484 122.121L60.5387 122.005L69.0373 139.757H107.118L91.7548 115.793Z" stroke="#CD8857" stroke-width="1.9404"/>
<path fill-rule="evenodd" clip-rule="evenodd" d="M48.5685 113.058L40.098 106.36H64.1029C64.1029 106.36 54.2433 106.956 52.1357 108.517C48.8885 110.923 48.614 112.794 48.614 112.794L48.5685 113.058Z" fill="#A86231"/>
<path fill-rule="evenodd" clip-rule="evenodd" d="M110.877 141.476L92.2557 115L60.6008 133.658C57.683 135.379 55.864 138.307 55.458 141.476H110.877Z" fill="#303DB9"/>
<path d="M25.2182 8.44008L21.8582 5.08008" stroke="#7C7E95" stroke-width="2" stroke-linecap="round" stroke-linejoin="round"/>
<path d="M32.6581 5.80001V1.00001" stroke="#7C7E95" stroke-width="2" stroke-linecap="round" stroke-linejoin="round"/>
<path d="M23.0362 16.3601H18.0182" stroke="#7C7E95" stroke-width="2" stroke-linecap="round" stroke-linejoin="round"/>
<path d="M25.218 111.16L21.858 114.52" stroke="#7C7E95" stroke-width="2" stroke-linecap="round" stroke-linejoin="round"/>
<path d="M32.658 113.8V118.6" stroke="#7C7E95" stroke-width="2" stroke-linecap="round" stroke-linejoin="round"/>
<path d="M23.0359 103.24H18.0179" stroke="#7C7E95" stroke-width="2" stroke-linecap="round" stroke-linejoin="round"/>
<path d="M85.698 8.44008L89.058 5.08008" stroke="#7C7E95" stroke-width="2" stroke-linecap="round" stroke-linejoin="round"/>
<path d="M78.258 5.80001V1.00001" stroke="#7C7E95" stroke-width="2" stroke-linecap="round" stroke-linejoin="round"/>
<path d="M87.88 16.3601H92.8979" stroke="#7C7E95" stroke-width="2" stroke-linecap="round" stroke-linejoin="round"/>
<path d="M97.938 38.6801V34.3601" stroke="#7C7E95" stroke-width="2" stroke-linecap="round" stroke-linejoin="round"/>
<path d="M95.5601 36.52H100.098" stroke="#7C7E95" stroke-width="2" stroke-linecap="round" stroke-linejoin="round"/>
<path d="M8.65795 95.32V91" stroke="#7C7E95" stroke-width="2" stroke-linecap="round" stroke-linejoin="round"/>
<path d="M6.28002 93.1602H10.818" stroke="#7C7E95" stroke-width="2" stroke-linecap="round" stroke-linejoin="round"/>
<path d="M3.37804 21.4001V17.0801" stroke="#7C7E95" stroke-width="2" stroke-linecap="round" stroke-linejoin="round"/>
<path d="M0.999995 19.24H5.53796" stroke="#7C7E95" stroke-width="2" stroke-linecap="round" stroke-linejoin="round"/>
<circle cx="10.5779" cy="30.7601" r="1" stroke="#7C7E95" stroke-width="1.36"/>
<circle cx="103.698" cy="10.6002" r="1" stroke="#7C7E95" stroke-width="1.36"/>
<circle cx="98.898" cy="66.7601" r="1" stroke="#7C7E95" stroke-width="1.36"/>
<circle cx="19.6981" cy="88.8402" r="1" stroke="#7C7E95" stroke-width="1.36"/>
</svg>
