<svg width="40" height="39" viewBox="0 0 40 39" fill="none" xmlns="http://www.w3.org/2000/svg">
<path d="M13.3537 17.3516C11.8014 17.3516 10.5528 18.2125 10.5528 20.1512C10.5528 22.0464 11.8014 22.9507 13.3537 22.9507C14.9005 22.9507 16.1518 22.0464 16.1518 20.1512C16.1518 18.2125 14.9005 17.3516 13.3537 17.3516ZM13.3537 21.6194C12.6596 21.6194 12.1403 21.092 12.1403 20.1512C12.1403 19.1276 12.6596 18.6802 13.3537 18.6802C14.0437 18.6802 14.5643 19.1276 14.5643 20.1512C14.5643 21.092 14.0437 21.6194 13.3537 21.6194ZM23.4415 17.4004C23.4415 17.4289 23.4645 17.452 23.493 17.452H24.6711C24.7646 17.452 24.8405 17.5292 24.8405 17.6201V18.6396C24.8405 18.6694 24.8175 18.6924 24.789 18.6924H23.493C23.4645 18.6924 23.4415 18.7155 23.4415 18.7439V20.7233C23.4415 21.4825 23.7289 21.7075 24.2088 21.7075C24.4338 21.7075 24.7877 21.5692 24.8392 21.5692C24.8677 21.5692 24.8921 21.5923 24.8921 21.6208V22.5969C24.8921 22.6701 24.85 22.7216 24.8039 22.746C24.5897 22.8612 24.2305 22.9399 23.699 22.9399C22.7704 22.9399 21.9082 22.4721 21.9082 20.9795V17.5374C21.9082 17.2323 22.0275 16.9422 22.2159 16.7362C22.4667 16.4596 23.2734 15.9417 23.3777 15.9417C23.4225 15.9417 23.4415 15.9553 23.4415 15.9973V17.4004ZM4.71107 17.6255C4.71107 17.5292 4.78834 17.4533 4.8846 17.4533H6.92629C8.93137 17.4533 9.96984 18.6572 9.96984 20.2149C9.96984 21.7739 8.808 22.8531 6.89375 22.8531H6.29724C6.26877 22.8531 6.24437 22.8761 6.24437 22.906V25.4316C6.24437 25.4737 6.22674 25.4872 6.18065 25.4872C6.07626 25.4872 5.26962 24.9693 5.01881 24.6928C4.83037 24.4854 4.71107 24.1952 4.71107 23.8916V17.6255ZM8.45552 20.1363C8.45552 19.4733 8.02712 18.8524 6.89511 18.8524H6.29453C6.26606 18.8524 6.24301 18.8755 6.24301 18.9053V21.3971C6.24301 21.4255 6.26606 21.4499 6.29453 21.4499H6.92493C8.27386 21.4499 8.45552 20.5131 8.45552 20.1363ZM21.1191 21.1883C21.1191 22.3257 20.3017 22.9507 18.7073 22.9507C17.795 22.9507 16.8311 22.6308 16.8229 22.628C16.7511 22.6009 16.7036 22.5359 16.7036 22.4613V21.4011C16.7036 21.3659 16.7334 21.3388 16.77 21.3388C16.7755 21.3388 16.7904 21.3415 16.7917 21.3428C17.132 21.4526 18.2356 21.7265 18.8226 21.7265C19.1696 21.7265 19.3513 21.675 19.4679 21.5584C19.5479 21.4784 19.5845 21.393 19.5845 21.29C19.5845 20.9429 19.1493 20.8466 18.7277 20.7545C18.6748 20.7436 18.6979 20.749 18.5555 20.7151C17.6323 20.4969 16.6589 20.2718 16.6589 19.0829C16.6589 18.5555 16.8799 18.1176 17.2933 17.8139C17.7055 17.5103 18.3006 17.3516 19.0137 17.3516C19.655 17.3516 20.4155 17.5631 20.6704 17.6445C20.7504 17.6702 20.7965 17.7407 20.7965 17.8126V18.87C20.7938 18.9188 20.7423 18.9419 20.707 18.9283C19.9763 18.6545 19.3079 18.5582 18.828 18.5582C18.4471 18.5582 18.2003 18.7236 18.2003 18.9798C18.2003 19.2754 18.5609 19.3554 19.0178 19.4584C19.0734 19.4706 19.3228 19.5275 19.3879 19.5411C19.7621 19.6238 20.1485 19.7079 20.4657 19.9153C20.9049 20.2027 21.1191 20.6189 21.1191 21.1883ZM29.3849 22.8341C29.3672 22.8341 29.3523 22.8192 29.3523 22.8016V19.5845C29.3523 18.87 29.1097 18.565 28.5403 18.565C28.3369 18.565 28.0915 18.6409 27.8475 18.7792C27.6048 18.9202 27.415 19.0368 27.3472 19.0775C27.3283 19.0897 27.3079 19.1222 27.3079 19.1479V22.8029C27.3079 22.8206 27.293 22.8355 27.2754 22.8355H25.8411C25.8234 22.8355 25.8072 22.8206 25.8072 22.8029V17.6269C25.8072 17.5428 25.8763 17.4737 25.9617 17.4737H27.2767C27.2944 17.4737 27.3106 17.4886 27.3106 17.5062V17.9129C27.3106 17.9373 27.331 17.9576 27.3554 17.9576C27.3649 17.9576 27.3771 17.9522 27.3811 17.9495L27.4245 17.917C27.5845 17.7936 27.8312 17.654 27.9966 17.5902C28.3559 17.4533 28.7436 17.3733 29.0581 17.3733C30.2308 17.3733 30.8504 18.0471 30.8504 19.3201V22.8002C30.8504 22.8192 30.8355 22.8328 30.8165 22.8328H29.3849V22.8341ZM32.0339 22.8341C32.0163 22.8341 32.0014 22.8192 32.0014 22.8016V14.8748C32.0014 14.8463 32.0068 14.8382 32.0461 14.8382C32.1356 14.8382 32.9354 15.3411 33.1944 15.6258C33.3869 15.8373 33.4967 16.1247 33.4967 16.4149V22.8016C33.4967 22.8192 33.4818 22.8341 33.4642 22.8341H32.0339ZM13.3523 9.0561C13.3252 9.0561 13.2994 9.06423 13.2683 9.08321C13.0269 9.26488 12.8141 9.47501 12.6297 9.7109C12.5755 9.77191 12.5755 9.84241 12.6324 9.91561C12.8073 10.142 13.008 10.344 13.2276 10.5162C13.2683 10.5487 13.3089 10.5636 13.351 10.5636C13.393 10.5636 13.4337 10.5474 13.4743 10.5148C13.694 10.3427 13.8946 10.1407 14.0695 9.91561C14.1264 9.84241 14.1264 9.77191 14.0695 9.70684C13.8892 9.47365 13.6763 9.26352 13.4404 9.08592C13.4065 9.06423 13.3808 9.0561 13.3523 9.0561ZM13.3523 10.9988C13.2371 10.9988 13.1151 11.0015 12.989 11.007C12.9443 11.007 12.9036 11.0232 12.8724 11.0558C12.8277 11.1005 12.81 11.1723 12.81 11.2198C12.8141 11.4679 12.8304 12.7775 12.8412 13.6113C12.8466 14.0139 12.8494 14.3054 12.8507 14.3149C12.8507 14.3745 12.8941 14.4992 13.0283 14.4992H13.6777C13.7739 14.4992 13.8404 14.4315 13.8539 14.323C13.8539 14.3203 13.8539 14.3176 13.8539 14.3149C13.8539 14.2945 13.8675 13.1815 13.8932 11.2605V11.2225C13.8946 11.1859 13.8824 11.1073 13.8322 11.0571C13.8011 11.0246 13.7604 11.0097 13.7129 11.0097C13.5909 11.0029 13.4689 10.9988 13.3523 10.9988ZM14.9995 11.1764C14.8504 11.1764 14.7284 11.2591 14.6646 11.4015C14.4776 11.8177 14.342 12.1973 14.2105 12.669C14.1956 12.7246 14.201 12.7707 14.2267 12.8046C14.2444 12.8277 14.2796 12.8548 14.3501 12.8548H14.8571C14.9724 12.8548 15.0144 12.7938 15.0307 12.7436C15.1134 12.4616 15.173 12.2976 15.2788 12.0644C15.2801 12.0617 15.2883 12.0468 15.3194 12.0468C15.3316 12.0468 15.3438 12.0481 15.356 12.0522L15.6136 12.1376C15.6435 12.1485 15.6624 12.1742 15.6719 12.1945C15.6909 12.2339 15.6936 12.2867 15.6801 12.3261C15.6774 12.3342 15.1595 13.7821 15.0049 14.2647C14.9819 14.3393 14.9846 14.3976 15.0158 14.441C15.0442 14.4803 15.093 14.5006 15.1608 14.5006H15.7885C15.8916 14.5006 15.9593 14.4599 15.9892 14.3772C16.0122 14.3149 16.0447 14.224 16.0827 14.1169L16.0976 14.0763C16.2861 13.5503 16.5721 12.7531 16.6331 12.5267C16.7362 12.143 16.7646 11.7228 16.202 11.514C16.0231 11.4476 15.8536 11.3906 15.6977 11.3432C15.4998 11.2822 15.3086 11.2374 15.1405 11.1981L15.1202 11.1927C15.0741 11.1805 15.0361 11.1764 14.9995 11.1764ZM11.7051 11.1764C11.6685 11.1764 11.6306 11.1805 11.594 11.19L11.5682 11.1954C11.4001 11.2347 11.2103 11.2794 11.0124 11.3405C10.8578 11.3879 10.6884 11.4448 10.5081 11.5113C9.94408 11.7201 9.97391 12.1403 10.0769 12.524C10.1352 12.7423 10.401 13.4892 10.626 14.1142C10.6653 14.2213 10.6965 14.3122 10.7195 14.3745C10.7494 14.4572 10.8172 14.4979 10.9202 14.4979H11.5479C11.6319 14.4979 11.6726 14.4654 11.6929 14.4382C11.7241 14.3962 11.7268 14.3379 11.7038 14.2634C11.5506 13.7875 11.0327 12.3383 11.0273 12.3247C11.0137 12.2854 11.0164 12.2339 11.0354 12.1932C11.0449 12.1729 11.0625 12.1471 11.0951 12.1363L11.354 12.0508C11.3635 12.0481 11.3757 12.0468 11.3879 12.0468C11.4137 12.0468 11.4259 12.0576 11.4286 12.0644C11.5357 12.303 11.5967 12.4684 11.6767 12.7436C11.6916 12.7951 11.7336 12.8548 11.8488 12.8548H12.3572C12.4128 12.8548 12.4548 12.8385 12.4806 12.8046C12.5064 12.7707 12.5118 12.726 12.4955 12.6704C12.3627 12.1959 12.2271 11.8163 12.0414 11.4015C12.0102 11.3337 11.9166 11.1764 11.7051 11.1764ZM15.6611 14.9805H11.0503C10.889 14.9805 10.7521 15.1161 10.7521 15.2774V15.8577C10.7521 16.0393 10.8294 16.1274 10.9907 16.1274H15.7221C15.8821 16.1274 15.9593 16.0393 15.9593 15.8577V15.2774C15.9593 15.1161 15.8224 14.9805 15.6611 14.9805ZM37.8648 19.4665C37.8594 16.2291 31.7777 10.6219 25.2974 7.04966C17.8221 2.92696 9.31503 0.497543 6.5128 2.04169C3.31876 3.8041 1.56855 12.6013 1.56719 19.4665C1.56855 26.3874 3.21708 35.072 6.5128 36.89C9.49941 38.5359 17.6363 36.1064 25.2974 31.8834C31.8794 28.2542 37.8594 22.8612 37.8648 19.4665ZM8.75649 0C13.4743 0 21.0324 2.98255 26.058 5.7536C28.9334 7.33842 32.1966 9.65125 34.7209 12.0048C37.1436 14.262 39.4293 17.0724 39.4333 19.4665C39.4293 21.7211 37.5991 24.3661 34.6531 27.0666C32.1519 29.3578 28.9036 31.6109 26.0593 33.1795C21.2045 35.8556 13.8051 38.9819 8.9273 38.9819C7.60143 38.9819 6.51415 38.7528 5.6926 38.3C3.53296 37.1097 2.14879 33.9021 1.3313 30.7595C0.452805 27.3879 0.0013557 23.333 0 19.4679C0 15.6855 0.488053 11.6211 1.33808 8.31588C2.37384 4.2908 3.88002 1.63498 5.6926 0.634469C6.45315 0.212845 7.48484 0 8.75649 0Z" fill="#E75204"/>
</svg>
