<svg width="42" height="42" viewBox="0 0 42 42" fill="none" xmlns="http://www.w3.org/2000/svg">
<path d="M0 0H38C40.2091 0 42 1.79086 42 4V38C42 40.2091 40.2091 42 38 42H0V0Z" fill="#6161FF"/>
<path d="M23.0003 24.6317L27.6199 29.2513C27.6441 29.2755 27.6684 29.2999 27.6926 29.3244C27.9892 29.6235 28.29 29.9268 28.6776 29.9424C29.2352 29.966 30.6671 29.5642 30.7775 29.4538C30.8259 29.4054 30.9175 29.2859 30.8729 29.2413L24.6318 23.0002L23.0003 24.6317Z" fill="white"/>
<path fill-rule="evenodd" clip-rule="evenodd" d="M19.5 25C22.5376 25 25 22.5376 25 19.5C25 16.4624 22.5376 14 19.5 14C16.4624 14 14 16.4624 14 19.5C14 22.5376 16.4624 25 19.5 25ZM19.5 27C23.6421 27 27 23.6421 27 19.5C27 15.3579 23.6421 12 19.5 12C15.3579 12 12 15.3579 12 19.5C12 23.6421 15.3579 27 19.5 27Z" fill="white"/>
</svg>
