<svg width="24" height="26" viewBox="0 0 24 26" fill="none" xmlns="http://www.w3.org/2000/svg">
<path fill-rule="evenodd" clip-rule="evenodd" d="M7.5 20.5C8.05228 20.5 8.5 20.0523 8.5 19.5C8.5 18.9477 8.05228 18.5 7.5 18.5C6.94772 18.5 6.5 18.9477 6.5 19.5C6.5 20.0523 6.94772 20.5 7.5 20.5ZM7.5 22C8.88071 22 10 20.8807 10 19.5C10 18.1193 8.88071 17 7.5 17C6.11929 17 5 18.1193 5 19.5C5 20.8807 6.11929 22 7.5 22Z" fill="#86889D"/>
<path fill-rule="evenodd" clip-rule="evenodd" d="M16.5 20.5C17.0523 20.5 17.5 20.0523 17.5 19.5C17.5 18.9477 17.0523 18.5 16.5 18.5C15.9477 18.5 15.5 18.9477 15.5 19.5C15.5 20.0523 15.9477 20.5 16.5 20.5ZM16.5 22C17.8807 22 19 20.8807 19 19.5C19 18.1193 17.8807 17 16.5 17C15.1193 17 14 18.1193 14 19.5C14 20.8807 15.1193 22 16.5 22Z" fill="#86889D"/>
<path fill-rule="evenodd" clip-rule="evenodd" d="M2.25 5.25C2.25 4.83579 2.58579 4.5 3 4.5H4C4.3455 4.5 4.64629 4.73602 4.72847 5.0716L7.72847 17.3216C7.827 17.7239 7.58073 18.1299 7.1784 18.2285C6.77608 18.327 6.37006 18.0807 6.27153 17.6784L3.41151 6H3C2.58579 6 2.25 5.66421 2.25 5.25Z" fill="#86889D"/>
<path fill-rule="evenodd" clip-rule="evenodd" d="M8.25 7.25C8.25 6.83579 8.58579 6.5 9 6.5H20C20.2247 6.5 20.4376 6.60074 20.58 6.77451C20.7225 6.94827 20.7795 7.17676 20.7354 7.39709L19.2354 14.8971C19.1653 15.2477 18.8575 15.5 18.5 15.5H6.5C6.08579 15.5 5.75 15.1642 5.75 14.75C5.75 14.3358 6.08579 14 6.5 14H17.8851L19.0851 8H9C8.58579 8 8.25 7.66421 8.25 7.25Z" fill="#86889D"/>
<path fill-rule="evenodd" clip-rule="evenodd" d="M8.75 19.25C8.75 18.8358 9.08579 18.5 9.5 18.5H14.5C14.9142 18.5 15.25 18.8358 15.25 19.25C15.25 19.6642 14.9142 20 14.5 20H9.5C9.08579 20 8.75 19.6642 8.75 19.25Z" fill="#86889D"/>
<path d="M8.75732 9.14583C8.71826 9.07105 8.77048 8.99609 8.85511 8.99609H13.0165C13.2 9.00678 13.3911 9.02305 13.4995 9.20977C13.7345 9.61458 13.9585 9.99576 14.011 10.0964C14.0501 10.1711 13.9979 10.2461 13.9132 10.2461H9.75191C9.56834 10.2354 9.37722 10.2191 9.26884 10.0324C9.03385 9.6276 8.80987 9.24643 8.75732 9.14583Z" fill="#86889D"/>
<path d="M9.91553 11.1497C9.87646 11.075 9.92868 11 10.0133 11H12.3994C12.583 11.0107 12.7741 11.027 12.8825 11.2137C13.1174 11.6185 13.3414 11.9997 13.394 12.1003C13.433 12.175 13.3808 12.25 13.2962 12.25H10.9101C10.7265 12.2393 10.5354 12.223 10.427 12.0363C10.1921 11.6315 9.96807 11.2503 9.91553 11.1497Z" fill="#86889D"/>
<path d="M7.3332 6.67969C7.28633 6.58994 7.34899 6.5 7.45055 6.5H11.5648C11.7851 6.51282 12.0145 6.53234 12.1445 6.75641C12.4265 7.24219 12.6953 7.69959 12.7583 7.82031C12.8052 7.91006 12.7426 8 12.641 8L8.5267 8C8.30642 7.98718 8.07708 7.96766 7.94702 7.74359C7.66504 7.25781 7.39626 6.80041 7.3332 6.67969Z" fill="#86889D"/>
<path fill-rule="evenodd" clip-rule="evenodd" d="M3.88406 6C0.150888 6 5.62736 6.00321 1.54637 6.00321C1.51159 6.00321 1.5 5.96474 1.5 5.91346C1.5 5.8109 1.94056 5.0032 2.17244 4.75961C2.32315 4.60577 2.53184 4.51603 2.75212 4.50321C2.77531 4.50321 2.7985 4.50321 2.82168 4.50321L3.88406 4.5C4.91716 4.5 4.85501 6 3.88406 6Z" fill="#86889D"/>
<path fill-rule="evenodd" clip-rule="evenodd" d="M2.19758 6.00317C2.13384 6.00318 2.06624 6.00319 1.99459 6.00319C1.99334 6.00319 1.9921 6.00319 1.99085 6.00319C1.85714 6.0032 1.70938 6.00321 1.54637 6.00321C1.51159 6.00321 1.5 5.96474 1.5 5.91346C1.5 5.89325 1.51712 5.84564 1.54637 5.78035C1.57769 5.71048 1.62291 5.62037 1.67595 5.52192C1.6793 5.51572 1.68267 5.50948 1.68608 5.5032C1.83421 5.2304 2.03826 4.90057 2.17244 4.75961C2.32315 4.60577 2.53184 4.51603 2.75212 4.50321L2.82168 4.50321L3.88406 4.5C4.91716 4.5 4.85501 6 3.88406 6C3.76109 6 3.64811 6 3.54446 6.00001C3.20764 6.00003 2.96925 6.00009 2.80628 6.00017C2.32159 6.00042 2.50391 6.0009 2.74791 6.0014C2.77135 6.00145 2.79536 6.0015 2.8194 6.00155C3.10249 6.00213 3.39011 6.00271 2.80634 6.00301C2.80632 6.00206 2.8063 6.00112 2.80628 6.00017M2.74747 6.00304C2.60909 6.0031 2.42874 6.00314 2.19758 6.00317L2.74747 6.00304ZM2.45576 5.50313C2.39581 5.50314 2.33121 5.50315 2.26167 5.50316C2.37278 5.31767 2.47569 5.16749 2.53207 5.10703C2.58718 5.05207 2.67034 5.0116 2.76935 5.00321H2.82319L3.88406 5C3.88385 5 3.88427 5 3.88406 5C4.0112 5.00014 4.06052 5.04142 4.08179 5.06549C4.11134 5.09892 4.13736 5.15896 4.13569 5.23964C4.13401 5.32055 4.10478 5.38941 4.06687 5.43164C4.0368 5.46514 3.98681 5.5 3.88406 5.5C2.95158 5.5 2.59239 5.5002 2.51576 5.5005C2.51542 5.50051 2.51499 5.50051 2.51446 5.50051C2.50918 5.50052 2.49491 5.50057 2.48478 5.50092L2.47242 5.5015C2.46957 5.50169 2.4635 5.50227 2.45576 5.50313Z" fill="#86889D"/>
</svg>
