<svg width="48" height="48" viewBox="0 0 48 48" fill="none" xmlns="http://www.w3.org/2000/svg">
<path fill-rule="evenodd" clip-rule="evenodd" d="M36.2243 23.7017C36.3792 23.7017 37.7106 24.4497 38.0854 24.8485C38.32 25.0976 38.3111 25.4299 38.3015 25.7881C38.2996 25.8602 38.2977 25.9333 38.2977 26.007L38.3023 35.5824C38.3023 36.0356 38.016 36.4432 37.5785 36.6098L22.6524 42.3266C22.0569 42.5529 21.7149 42.5072 21.4279 42.3694L4.63287 34.2624C4.24505 34.0752 4 33.692 4 33.2734V17.0595C4 16.6092 4.28246 16.2046 4.71455 16.035L19.9117 10.0809C20.198 9.97031 20.5164 9.97252 20.7973 10.0912L22.1704 10.6652C22.9178 10.9777 22.9531 12.0234 22.2286 12.3857C21.7357 12.6322 21.1599 12.6517 20.6514 12.4392L20.3287 12.3043L8.04848 17.1147L12.8312 19.2048L22.573 15.1766C22.8468 15.0634 23.1539 15.0616 23.429 15.1716C24.3754 15.5502 24.3829 16.8871 23.4409 17.2763L15.7191 20.4666L22.0378 23.2274L26.4854 21.4954C26.5541 21.4688 26.6215 21.4408 26.688 21.4131C27.0314 21.2704 27.35 21.138 27.6794 21.2559C28.2024 21.4424 29.4185 22.3526 29.4765 22.4919C29.5017 22.5523 29.5383 22.6909 29.4795 22.7137L23.0921 25.176V39.7796L36.012 34.8314L36.0074 23.782C36.0074 23.7209 36.1563 23.7017 36.2243 23.7017ZM6.29043 18.7728V32.59L20.8639 39.5952V25.1405L14.4016 22.317V31.6106C14.4016 31.6717 14.2528 31.6909 14.1848 31.6909C14.0299 31.6909 12.6985 30.9436 12.3236 30.5441C12.0891 30.2956 12.098 29.9634 12.1076 29.6052C12.1095 29.5331 12.1114 29.46 12.1114 29.3863V21.3162L6.29043 18.7728Z" fill="#F56900"/>
<path d="M37.035 18.6715L41.6692 23.3057C41.6935 23.33 41.7178 23.3545 41.7421 23.379C42.0396 23.6791 42.3414 23.9834 42.7302 23.999C43.2895 24.0226 44.726 23.6196 44.8368 23.5088C44.8853 23.4603 44.9771 23.3404 44.9324 23.2957L38.6716 17.0349L37.035 18.6715Z" fill="#F56900"/>
<path fill-rule="evenodd" clip-rule="evenodd" d="M33.5237 19.041C36.5708 19.041 39.041 16.5708 39.041 13.5237C39.041 10.4765 36.5708 8.00631 33.5237 8.00631C30.4765 8.00631 28.0063 10.4765 28.0063 13.5237C28.0063 16.5708 30.4765 19.041 33.5237 19.041ZM33.5237 21.0473C37.6789 21.0473 41.0473 17.6789 41.0473 13.5237C41.0473 9.36846 37.6789 6 33.5237 6C29.3685 6 26 9.36846 26 13.5237C26 17.6789 29.3685 21.0473 33.5237 21.0473Z" fill="#F56900"/>
</svg>
