<svg width="221" height="114" viewBox="0 0 221 114" fill="none" xmlns="http://www.w3.org/2000/svg">
<path d="M219.634 113.23H1.36133C5.21993 109.278 10.5085 109.902 16.0325 109.902H204.962C210.486 109.902 215.778 109.275 219.634 113.23Z" fill="#22202E"/>
<path d="M203.583 93.4873C203.583 104.309 194.801 113.016 184.055 113.016C173.309 113.016 164.526 104.234 164.526 93.4873C164.526 82.7412 173.309 73.959 184.055 73.959C194.801 73.959 203.583 82.6627 203.583 93.4873Z" fill="#22202E"/>
<path d="M210.015 93.1647H174.57L116.018 0H127.437C150.335 0 157.316 23.761 187.274 42.9756C198.409 50.1106 217.075 59.0527 219.82 65.3248C220.056 65.8739 220.134 66.3445 220.134 66.8151C220.134 73.7178 220.056 83.049 220.056 83.049C220.134 88.6182 210.018 93.1647 210.018 93.1647" fill="#F56900"/>
<path d="M220.993 82.1079H149.628V93.3217H210.72C216.368 93.3217 220.915 88.8507 220.915 83.2845L220.993 82.1079Z" fill="#22202E"/>
<path d="M79.6749 93.4873C79.6749 104.309 70.8928 113.016 60.1466 113.016C49.4004 113.016 40.5398 104.312 40.5398 93.4873C40.5398 82.6627 49.322 73.959 60.0681 73.959C70.8143 73.959 79.6749 82.6627 79.6749 93.4873Z" fill="#22202E"/>
<path d="M197.142 92.6928H13.1624C7.59321 92.6928 3.04675 88.8492 3.04675 83.2831V10.1928C3.04675 4.62662 7.59623 0.0771484 13.1624 0.0771484H114.485C137.383 0.0771484 144.443 23.8382 174.4 43.1312C186.398 50.8153 207.417 60.6986 207.417 67.0492V83.2831" fill="#F7F7F8"/>
<path d="M187.353 43.0541C172.452 33.4876 163.278 22.8198 154.885 14.5083H121.554C120.299 14.5083 119.358 15.528 119.358 16.7046V38.2693C119.358 42.4266 122.731 45.7965 126.885 45.7965H191.896C190.327 44.9337 188.758 43.9924 187.346 43.0511" fill="#899BFF"/>
<path d="M0.313757 82.1079L0 83.2061C0 88.7752 4.62791 93.3217 10.2725 93.3217H197.389C203.037 93.3217 207.662 88.7722 207.662 83.2061V82.1079H0.313757Z" fill="#22202E"/>
<path d="M62.0325 93.4776C62.0325 104.299 53.2503 113.006 42.5042 113.006C31.758 113.006 22.9758 104.224 22.9758 93.4776C22.9758 82.7314 31.758 73.9492 42.5042 73.9492C53.2503 73.9492 62.0325 82.7314 62.0325 93.4776Z" fill="#515165"/>
<path d="M54.504 93.4785C54.504 100.146 49.0917 105.555 42.4273 105.555C35.763 105.555 30.3507 100.143 30.3507 93.4785C30.3507 86.8142 35.763 81.4019 42.4273 81.4019C49.0947 81.4803 54.504 86.8926 54.504 93.4785Z" fill="white"/>
<path d="M184.92 93.4776C184.92 104.299 176.137 113.006 165.391 113.006C154.645 113.006 145.863 104.224 145.863 93.4776C145.863 82.7314 154.645 73.9492 165.391 73.9492C176.137 73.9492 184.92 82.7314 184.92 93.4776Z" fill="#515165"/>
<path d="M177.391 93.4785C177.391 100.146 171.979 105.555 165.314 105.555C158.65 105.555 153.238 100.143 153.238 93.4785C153.238 86.8142 158.65 81.4019 165.314 81.4019C171.982 81.4803 177.391 86.8926 177.391 93.4785Z" fill="white"/>
<g clip-path="url(#clip0_218_871)">
<path d="M60.3193 26.2482C60.186 26.0359 60.0256 25.8326 59.837 25.644L47.9716 13.7785C47.2476 13.0546 46.2933 12.6909 45.339 12.6909C44.3846 12.6909 43.4303 13.0546 42.7063 13.7785L30.8409 25.644C30.7178 25.7671 30.615 25.8924 30.5201 26.0189C29.4777 27.4759 30.039 29.5641 31.8517 30.6224L45.3333 38.7936L58.5044 31.0064C59.6394 30.2734 60.3103 29.4455 60.5926 28.6245C60.7733 27.7639 60.7507 26.9722 60.317 26.2493L60.3193 26.2482Z" fill="#EBECEF"/>
<path fill-rule="evenodd" clip-rule="evenodd" d="M30.5948 21.0803L34.1163 19.707L38.3628 30.4317L39.3059 14.2373L43.3345 14.4429C43.3345 14.4429 42.8658 19.5816 42.667 21.5671C42.9561 19.9001 43.1312 18.8102 43.1312 18.8102L47.3596 20.0232L46.8107 21.915L48.8335 22.3633C48.8335 22.3633 47.3156 28.7038 46.5521 31.874C48.9611 25.0219 51.8727 17.2517 51.8727 17.2517L55.0215 18.4308L53.4098 23.0421L55.7861 23.862C56.4558 22.2154 56.9008 21.121 56.9008 21.121L59.8553 22.4797C59.8553 22.4797 55.4382 32.2456 53.2878 37.5481C52.7977 37.3493 52.3098 37.1505 51.8264 36.9529C51.5011 38.0394 51.1793 39.136 50.8675 40.2654C49.9764 40.0203 49.0876 39.7369 48.1976 39.4906C48.5523 38.2031 48.9894 36.6152 49.4513 34.9369C48.7861 36.8332 48.1231 38.7294 47.4534 40.6246C46.5318 40.2982 45.6102 39.9706 44.6886 39.6442C44.5632 40.1717 44.4345 40.698 44.3091 41.2254C43.2678 40.9702 42.2265 40.7149 41.183 40.4981C41.4326 39.4692 41.7115 38.246 42.0018 36.928C41.2134 36.7089 40.424 36.4752 39.6041 36.2628C39.6775 36.0121 39.7509 35.7433 39.8243 35.4677C39.202 35.4034 38.5797 35.3333 37.9687 35.252C37.9766 35.1763 37.9834 35.0939 37.9913 35.016C37.1871 35.2723 36.479 35.4971 36.479 35.4971L30.5948 21.0803Z" fill="#FDD732"/>
<path fill-rule="evenodd" clip-rule="evenodd" d="M51.8815 17.2605L50.1501 16.6562C50.1501 16.6562 44.8318 31.6659 42.3132 38.7924C42.9073 38.9799 43.4935 39.2115 44.0875 39.3989C46.5191 32.5254 51.8815 17.2605 51.8815 17.2605Z" fill="#FFAD00"/>
<path fill-rule="evenodd" clip-rule="evenodd" d="M52.9193 22.9077L51.4974 22.8174C51.4974 22.8174 48.5903 33.3592 47.0182 39.0762C47.462 39.2174 47.907 39.3597 48.3509 39.5009C49.8733 33.9702 51.3969 28.4395 52.9193 22.9077Z" fill="#FFAD00"/>
<path fill-rule="evenodd" clip-rule="evenodd" d="M44.4237 19.1816L43.1316 18.8101C43.1316 18.8101 39.8417 30.1582 38.1962 35.8323C38.6784 35.9758 39.1595 36.1203 39.6045 36.2615C41.2004 30.7726 44.4248 19.1805 44.4248 19.1805L44.4237 19.1816Z" fill="#FFAD00"/>
<path fill-rule="evenodd" clip-rule="evenodd" d="M48.9579 22.1422L45.2603 21.3223C45.2603 21.3223 42.7914 34.1771 41.3074 40.277C42.3509 40.4949 43.3922 40.749 44.4335 41.0043C45.9289 34.7158 47.4626 28.4307 48.9579 22.1422Z" fill="#FFAD00"/>
<path fill-rule="evenodd" clip-rule="evenodd" d="M46.3514 40.0281L43.0378 41.8058L34.835 26.7249L38.1486 24.9473L46.3514 40.0281Z" fill="#FFAD00"/>
<path fill-rule="evenodd" clip-rule="evenodd" d="M46.9292 39.7176L44.405 41.0717L36.2021 25.9909L38.7264 24.6367L46.9292 39.7176Z" fill="#FDD732"/>
<path d="M58.7357 30.4654L45.3918 37.2282L31.7329 30.0769C31.027 29.6658 30.512 29.0977 30.2003 28.4731C30.3618 29.0954 30.6148 29.7607 30.8972 30.4778L45.3986 63.0406L59.9012 30.4778C60.1282 29.8826 60.3428 29.3145 60.5021 28.7713C60.1316 29.3597 59.5522 29.9368 58.7346 30.4654H58.7357Z" fill="#303DB9"/>
<path d="M45.4912 37.1785L45.3918 37.2294L31.7329 30.0769C31.027 29.6658 30.512 29.0977 30.2003 28.4731C30.3618 29.0954 30.6148 29.7607 30.8983 30.4778L45.3998 63.0406L45.4912 62.8362V37.1774V37.1785Z" fill="#303DB9"/>
</g>
<g clip-path="url(#clip1_218_871)">
<path d="M67.8865 29.9511C67.6138 29.9511 67.3537 29.7981 67.2288 29.5359C65.5098 25.9293 66.3402 23.1146 67.0727 20.6319C67.772 18.2615 68.3755 16.2147 67.055 13.5853C66.874 13.2252 67.0197 12.7882 67.3787 12.6071C67.7387 12.4261 68.1757 12.5718 68.3568 12.9308C69.9363 16.0743 69.1913 18.6007 68.4702 21.0439C67.7481 23.4934 67.0655 25.8065 68.5441 28.9095C68.7168 29.2726 68.5628 29.7076 68.1997 29.8803C68.0987 29.9282 67.9915 29.9511 67.8865 29.9511Z" fill="#BFC0CB"/>
<path d="M68.6497 57.1937C78.8468 57.1937 87.1132 51.396 87.1132 44.2441C87.1132 37.0922 78.8468 31.2944 68.6497 31.2944C58.4526 31.2944 50.1862 37.0922 50.1862 44.2441C50.1862 51.396 58.4526 57.1937 68.6497 57.1937Z" fill="#EBECEF"/>
<path d="M62.9172 38.1499C62.7736 37.9584 62.502 37.9189 62.3106 38.0625C62.1815 38.1582 62.1222 38.3133 62.1399 38.4621C62.1482 38.5349 62.1763 38.6067 62.2231 38.6691L63.3053 40.1165C63.4489 40.308 63.7205 40.3475 63.912 40.204C64.1034 40.0604 64.143 39.7888 63.9994 39.5973L62.9172 38.1499Z" fill="#BFC0CB"/>
<path d="M69.0449 39.4046C68.8243 39.312 68.5704 39.415 68.4778 39.6356L67.842 41.1465L66.3925 41.4056C66.1563 41.4482 66.0003 41.673 66.0419 41.9082C66.0835 42.1433 66.3093 42.3005 66.5445 42.2588L68.3238 41.9404C68.56 41.8978 68.7161 41.673 68.6745 41.4378C68.6734 41.4306 68.6693 41.4243 68.6672 41.417L69.2759 39.9707C69.304 39.9041 69.3134 39.8354 69.3082 39.7678C69.2957 39.6117 69.1979 39.4681 69.0439 39.4025L69.0449 39.4046Z" fill="#BFC0CB"/>
<path d="M66.7382 40.2798C66.9588 40.3724 67.2127 40.2694 67.3053 40.0488L68.0067 38.3829C68.0347 38.3163 68.0452 38.2476 68.0389 38.18C68.0264 38.0239 67.9297 37.8803 67.7746 37.8148C67.554 37.7221 67.3001 37.8252 67.2065 38.0458L66.5051 39.7117C66.4115 39.9323 66.5155 40.1862 66.7361 40.2788L66.7382 40.2798Z" fill="#BFC0CB"/>
<path d="M68.3902 38.5128C68.5265 38.7095 68.796 38.7594 68.9927 38.6241C69.1248 38.5326 69.1914 38.3817 69.179 38.2319C69.1727 38.159 69.1488 38.0862 69.104 38.0217L68.0781 36.5326C67.9417 36.336 67.6722 36.286 67.4745 36.4213C67.2779 36.5566 67.2279 36.8271 67.3632 37.0248L68.3892 38.5128H68.3902Z" fill="#BFC0CB"/>
<path d="M72.8244 39.8812C72.5872 39.85 72.3697 40.0175 72.3385 40.2547L72.1054 42.0476C72.0731 42.2849 72.2417 42.5023 72.479 42.5336C72.7162 42.5648 72.9337 42.3972 72.9649 42.16L73.199 40.3671C73.2032 40.3359 73.2032 40.3057 73.2011 40.2756C73.1844 40.0758 73.0315 39.9082 72.8255 39.8812H72.8244Z" fill="white"/>
<path d="M74.7858 39.5409C74.5486 39.5096 74.3311 39.6772 74.2999 39.9144L74.0658 41.7073C74.0356 41.9435 74.2021 42.162 74.4393 42.1932C74.6766 42.2244 74.8941 42.0569 74.9253 41.8197L75.1594 40.0268C75.1636 39.9956 75.1636 39.9654 75.1615 39.9352C75.1459 39.7354 74.9919 39.5679 74.7858 39.5409Z" fill="white"/>
<path d="M71.1095 38.6053C71.0627 38.3701 70.8348 38.2182 70.5996 38.264C70.3644 38.3108 70.2115 38.5408 70.2583 38.7739L70.61 40.547C70.6568 40.7821 70.8847 40.9341 71.1199 40.8883C71.3384 40.8446 71.4851 40.6448 71.4674 40.4283C71.4664 40.4117 71.4643 40.395 71.4601 40.3784L71.1084 38.6053H71.1095Z" fill="white"/>
<path d="M77.3476 34.9646L76.6911 34.4245C76.6942 34.2768 76.6234 34.1301 76.4881 34.0458L75.8118 33.6254L75.8669 33.205C75.8711 33.1738 75.8711 33.1436 75.869 33.1134C75.8534 32.9137 75.6994 32.7461 75.4934 32.7191C75.2561 32.6879 75.0387 32.8554 75.0074 33.0926L75.0033 33.1218L74.9533 33.0906C74.9273 33.0739 74.8992 33.0614 74.8711 33.051C74.6828 32.9834 74.4664 33.0531 74.3561 33.23C74.2302 33.4329 74.2915 33.7003 74.4955 33.8273L74.8795 34.0666L74.7723 34.8855C74.7421 35.1217 74.9086 35.3402 75.1458 35.3714C75.3831 35.4027 75.6006 35.2351 75.6318 34.9979L75.6692 34.7076L76.817 35.6503C77.0126 35.8126 77.3102 35.771 77.4538 35.5535C77.5786 35.3642 77.5225 35.1071 77.3466 34.9635L77.3476 34.9646Z" fill="white"/>
<path d="M72.3433 38.8334C72.4869 39.0248 72.7585 39.0644 72.95 38.9208C73.1414 38.7772 73.181 38.5056 73.0374 38.3141L71.9552 36.8667C71.8345 36.7055 71.6233 36.6534 71.4453 36.7263L71.41 36.6742C71.2737 36.4776 71.0041 36.4276 70.8064 36.5629C70.6098 36.6982 70.5598 36.9687 70.6951 37.1654L71.7211 38.6544C71.8522 38.8438 72.1071 38.8958 72.3017 38.7772L72.3433 38.8323V38.8334Z" fill="white"/>
<path d="M65.1262 42.6717C65.0242 42.6717 64.9212 42.6353 64.8379 42.5625L63.4873 41.3617C63.3083 41.2025 63.2927 40.9288 63.4509 40.7498C63.6101 40.5708 63.8838 40.5542 64.0627 40.7134L65.4134 41.9142C65.5923 42.0734 65.608 42.3471 65.4498 42.526C65.3645 42.6228 65.2448 42.6717 65.1251 42.6717H65.1262Z" fill="#BFC0CB"/>
<path d="M82.6198 43.0921C82.6115 43.0255 82.6198 42.9558 82.6448 42.8882L83.2816 41.1962C83.3659 40.9725 83.6156 40.8591 83.8393 40.9434C84.0631 41.0277 84.1775 41.2784 84.0922 41.5011L83.4554 43.1931C83.3711 43.4168 83.1214 43.5302 82.8976 43.4459C82.7405 43.3866 82.6386 43.2472 82.6198 43.0911V43.0921Z" fill="white"/>
<path d="M75.3975 42.0964C75.385 41.9945 75.4089 41.8883 75.4714 41.7978L76.5026 40.3129C76.6389 40.1163 76.9094 40.0674 77.1061 40.2037C77.3027 40.341 77.3516 40.6105 77.2153 40.8072L76.1841 42.2921C76.0478 42.4887 75.7773 42.5376 75.5806 42.4013C75.4745 42.3274 75.4121 42.2151 75.3975 42.0964Z" fill="white"/>
<path d="M77.9087 42.1652C77.9056 42.1351 77.9045 42.1049 77.9076 42.0737L78.0721 40.2735C78.0939 40.0352 78.3051 39.8594 78.5434 39.8812C78.7817 39.9031 78.9576 40.1154 78.9357 40.3526L78.7713 42.1528C78.7495 42.391 78.5382 42.5669 78.2999 42.545C78.0929 42.5263 77.9326 42.364 77.9087 42.1652Z" fill="white"/>
<path d="M54.3221 43.0724C54.3356 43.2389 54.2514 43.4064 54.0942 43.4897L52.5001 44.3419C52.2889 44.4553 52.0267 44.3752 51.9132 44.164C51.7998 43.9538 51.8799 43.6905 52.0912 43.5771L53.6853 42.7249C53.8965 42.6115 54.1587 42.6916 54.2722 42.9028C54.3013 42.9569 54.318 43.0142 54.3221 43.0724Z" fill="#BFC0CB"/>
<path d="M56.8739 42.0973C56.8864 42.2472 56.8198 42.398 56.6876 42.4896C56.491 42.6249 56.2204 42.576 56.0851 42.3783L55.0592 40.8903C54.9239 40.6926 54.9728 40.4231 55.1705 40.2878C55.3672 40.1525 55.6377 40.2014 55.773 40.3991L56.799 41.8871C56.8437 41.9516 56.8676 42.0245 56.8739 42.0973Z" fill="#BFC0CB"/>
<path d="M77.7519 41.6352C77.7602 41.7372 77.7321 41.8423 77.6666 41.9307L76.5792 43.3739C76.4346 43.5654 76.163 43.6029 75.9715 43.4593C75.7801 43.3146 75.7416 43.0441 75.8862 42.8516L76.9736 41.4083C77.1182 41.2169 77.3898 41.1794 77.5813 41.323C77.6843 41.4011 77.7426 41.5155 77.7519 41.6341V41.6352Z" fill="white"/>
<path d="M84.0735 36.3649C84.0787 36.4315 84.0693 36.5012 84.0412 36.5678L83.3399 38.2338C83.2473 38.4544 82.9934 38.5584 82.7728 38.4648C82.5522 38.3722 82.4481 38.1172 82.5418 37.8977L83.2431 36.2317C83.3357 36.0111 83.5896 35.9071 83.8102 36.0007C83.9642 36.0653 84.062 36.2099 84.0745 36.366L84.0735 36.3649Z" fill="white"/>
<path d="M82.006 39.4806C82.0184 39.6305 81.9518 39.7813 81.8197 39.8729C81.623 40.0082 81.3525 39.9593 81.2172 39.7616L80.1912 38.2736C80.056 38.0769 80.1049 37.8064 80.3026 37.6711C80.4992 37.5358 80.7698 37.5847 80.9051 37.7824L81.931 39.2704C81.9758 39.3349 81.9997 39.4078 82.006 39.4806Z" fill="white"/>
<path d="M84.3893 38.9344C84.3976 39.0364 84.3695 39.1415 84.304 39.2299L83.2166 40.6742C83.073 40.8657 82.8004 40.9042 82.61 40.7595C82.4185 40.6149 82.38 40.3443 82.5246 40.1529L83.612 38.7086C83.7556 38.5171 84.0282 38.4786 84.2187 38.6233C84.3217 38.7013 84.3799 38.8158 84.3903 38.9344H84.3893Z" fill="white"/>
<path d="M79.521 35.3107C79.523 35.3409 79.523 35.3711 79.5189 35.4023L79.2847 37.1951C79.2535 37.4324 79.0361 37.5999 78.7988 37.5687C78.5616 37.5375 78.394 37.319 78.4253 37.0828L78.6594 35.2899C78.6906 35.0527 78.9081 34.8851 79.1453 34.9163C79.3513 34.9434 79.5053 35.1109 79.521 35.3107Z" fill="white"/>
<path d="M58.26 40.9976C58.4016 41.0486 58.5119 41.1714 58.5399 41.3295C58.5816 41.5647 58.4255 41.7905 58.1893 41.8321L56.4099 42.1505C56.1737 42.1922 55.949 42.0361 55.9074 41.7999C55.8657 41.5647 56.0218 41.3389 56.258 41.2973L58.0374 40.9789C58.1144 40.9653 58.1914 40.9726 58.26 40.9976Z" fill="#BFC0CB"/>
<path d="M62.5529 42.5821C62.6944 42.6331 62.8047 42.7558 62.8328 42.914C62.8744 43.1492 62.7183 43.375 62.4821 43.4166L60.7028 43.735C60.4676 43.7766 60.2418 43.6195 60.2002 43.3843C60.1586 43.1492 60.3147 42.9234 60.5509 42.8818L62.3302 42.5633C62.4072 42.5498 62.4842 42.5571 62.5529 42.5821Z" fill="#BFC0CB"/>
<path d="M53.1723 39.8238C53.2004 39.8342 53.2285 39.8467 53.2545 39.8633L54.7893 40.8175C54.9922 40.9445 55.0546 41.2108 54.9287 41.4148C54.8018 41.6177 54.5333 41.6801 54.3314 41.5542L52.7966 40.6C52.5937 40.4731 52.5313 40.2067 52.6572 40.0028C52.7675 39.8259 52.9839 39.7562 53.1723 39.8238Z" fill="#BFC0CB"/>
<path d="M63.9584 38.9404C63.9459 38.8385 63.9698 38.7323 64.0323 38.6418L65.0635 37.1569C65.1998 36.9603 65.4703 36.9114 65.667 37.0487C65.8636 37.185 65.9126 37.4556 65.7752 37.6522L64.744 39.1371C64.6077 39.3338 64.3372 39.3827 64.1405 39.2453C64.0344 39.1714 63.9719 39.0591 63.9574 38.9404H63.9584Z" fill="#BFC0CB"/>
<path d="M61.5053 34.6636C61.4928 34.5616 61.5167 34.4555 61.5792 34.3649L62.6103 32.8801C62.7467 32.6834 63.0172 32.6345 63.2139 32.7719C63.4105 32.9082 63.4594 33.1787 63.3221 33.3754L62.2909 34.8602C62.1546 35.0569 61.884 35.1058 61.6874 34.9685C61.5812 34.8946 61.5188 34.7822 61.5042 34.6636H61.5053Z" fill="#BFC0CB"/>
<path d="M59.9864 39.8532C59.9916 39.9198 59.9823 39.9895 59.9542 40.0561L59.2528 41.722C59.1602 41.9426 58.9063 42.0467 58.6857 41.953C58.4651 41.8604 58.3611 41.6055 58.4547 41.386L59.1561 39.72C59.2487 39.4994 59.5026 39.3954 59.7232 39.489C59.8772 39.5535 59.975 39.6982 59.9875 39.8543L59.9864 39.8532Z" fill="#BFC0CB"/>
<path d="M61.3789 41.0549C61.3841 41.1215 61.3747 41.1912 61.3466 41.2578L60.6453 42.9237C60.5527 43.1443 60.2988 43.2484 60.0782 43.1547C59.8576 43.0621 59.7535 42.8072 59.8472 42.5876L60.5485 40.9217C60.6411 40.7011 60.895 40.597 61.1156 40.6907C61.2696 40.7552 61.3674 40.8998 61.3799 41.0559L61.3789 41.0549Z" fill="#BFC0CB"/>
<path d="M62.9186 41.2414C62.931 41.3912 62.8644 41.5421 62.7323 41.6336C62.5356 41.7689 62.2651 41.72 62.1298 41.5223L61.1038 40.0343C60.9686 39.8376 61.0175 39.5671 61.2152 39.4318C61.4118 39.2966 61.6824 39.3455 61.8176 39.5432L62.8436 41.0312C62.8884 41.0957 62.9123 41.1685 62.9186 41.2414Z" fill="#BFC0CB"/>
<path d="M61.1809 37.9402C61.1861 38.0068 61.1767 38.0765 61.1486 38.1431L60.4577 39.784C60.3693 39.9932 60.1393 40.1212 59.9218 40.0556C59.6721 39.9797 59.5483 39.707 59.6482 39.4729L60.3432 37.8216C60.414 37.654 60.5774 37.5302 60.7595 37.5396C61.004 37.552 61.1653 37.7352 61.1809 37.9402Z" fill="#BFC0CB"/>
<path d="M64.0701 39.2598C64.0836 39.4211 64.0056 39.5845 63.8526 39.6719C63.6528 39.7864 63.3968 39.7094 63.2668 39.52L62.2689 38.0715C62.1596 37.9134 62.1471 37.6959 62.2658 37.5461C62.4593 37.3015 62.8089 37.3275 62.9702 37.5617L63.9962 39.0496C64.0409 39.1142 64.0649 39.187 64.0711 39.2598H64.0701Z" fill="#BFC0CB"/>
<path d="M61.3807 34.1173C61.3943 34.2785 61.3162 34.4419 61.1633 34.5293C60.9635 34.6438 60.7075 34.5668 60.5774 34.3774L59.5795 32.929C59.4703 32.7708 59.4578 32.5533 59.5764 32.4035C59.77 32.1589 60.1196 32.185 60.2809 32.4191L61.3069 33.9071C61.3516 33.9716 61.3755 34.0444 61.3818 34.1173H61.3807Z" fill="#BFC0CB"/>
<path d="M63.9744 40.1246C63.9879 40.2859 63.9099 40.4492 63.7569 40.5366C63.5571 40.6511 63.3011 40.5741 63.1711 40.3847L62.1732 38.9363C62.0639 38.7781 62.0514 38.5606 62.1701 38.4108C62.3636 38.1663 62.7132 38.1923 62.8745 38.4264L63.9005 39.9144C63.9452 39.9789 63.9692 40.0517 63.9754 40.1246H63.9744Z" fill="#BFC0CB"/>
<path d="M65.539 34.308C65.5473 34.4099 65.5192 34.515 65.4537 34.6035L64.3788 36.0311C64.2633 36.1841 64.0614 36.2652 63.8804 36.1986C63.588 36.0915 63.5026 35.7522 63.6733 35.5264L64.7367 34.1155C64.8991 33.899 65.2268 33.847 65.4173 34.0395C65.4901 34.1134 65.5317 34.2091 65.54 34.309L65.539 34.308Z" fill="#BFC0CB"/>
<path d="M63.033 34.1426C63.0351 34.1728 63.0351 34.203 63.031 34.2342L62.801 35.9959C62.7708 36.2237 62.5804 36.4131 62.3504 36.4038C62.0924 36.3933 61.9051 36.1634 61.9373 35.9147L62.1673 34.1541C62.1975 33.921 62.3962 33.7285 62.6314 33.7451C62.8509 33.7608 63.0164 33.9345 63.033 34.1426Z" fill="#BFC0CB"/>
<path d="M58.9003 37.0738C58.9024 37.104 58.9024 37.1341 58.8983 37.1654L58.6683 38.927C58.6381 39.1549 58.4477 39.3443 58.2177 39.3349C57.9597 39.3245 57.7724 39.0945 57.8046 38.8458L58.0346 37.0852C58.0648 36.8522 58.2635 36.6596 58.4987 36.6763C58.7182 36.6919 58.8837 36.8657 58.9003 37.0738Z" fill="#BFC0CB"/>
<path d="M53.9512 41.7823C53.9533 41.8125 53.9533 41.8426 53.9492 41.8739L53.7192 43.6355C53.689 43.8634 53.4986 44.0528 53.2686 44.0434C53.0106 44.033 52.8233 43.803 52.8555 43.5543L53.0855 41.7937C53.1157 41.5606 53.3144 41.3681 53.5496 41.3848C53.7691 41.4004 53.9346 41.5742 53.9512 41.7823Z" fill="#BFC0CB"/>
<path d="M71.5615 33.5119C71.7207 33.4598 71.9028 33.5046 72.0204 33.6378L73.2159 34.9936C73.3741 35.1736 73.3575 35.4473 73.1774 35.6055C72.9985 35.7636 72.7238 35.747 72.5656 35.567L71.37 34.2111C71.2118 34.0311 71.2285 33.7574 71.4085 33.5993C71.4543 33.5587 71.5063 33.5296 71.5615 33.5119Z" fill="white"/>
<path d="M66.3682 31.7345C66.5274 31.6825 66.7095 31.7272 66.8271 31.8604L68.0227 33.2163C68.1809 33.3963 68.1642 33.6699 67.9842 33.8281C67.8052 33.9863 67.5305 33.9696 67.3724 33.7896L66.1768 32.4338C66.0186 32.2538 66.0353 31.9801 66.2153 31.8219C66.2611 31.7813 66.3131 31.7522 66.3682 31.7345Z" fill="#BFC0CB"/>
<path d="M65.7864 39.2556C65.8499 39.2785 65.9092 39.316 65.9571 39.369L67.1839 40.6968C67.3462 40.8726 67.3358 41.1473 67.16 41.3097C66.9851 41.472 66.7094 41.4616 66.5471 41.2857L65.3203 39.958C65.1579 39.7821 65.1683 39.5074 65.3442 39.3451C65.467 39.2317 65.6387 39.2025 65.7854 39.2556H65.7864Z" fill="#BFC0CB"/>
<path d="M55.9411 38.1985C56.0046 38.2214 56.0639 38.2588 56.1117 38.3119L57.3385 39.6396C57.5009 39.8155 57.4905 40.0902 57.3146 40.2525C57.1388 40.4148 56.8641 40.4044 56.7017 40.2286L55.4749 38.9008C55.3126 38.725 55.323 38.4503 55.4989 38.288C55.6216 38.1745 55.7933 38.1454 55.94 38.1985H55.9411Z" fill="#BFC0CB"/>
<path d="M53.5856 37.5261C53.6491 37.549 53.7084 37.5865 53.7563 37.6395L54.9831 38.9673C55.1454 39.1431 55.135 39.4178 54.9591 39.5802C54.7833 39.7425 54.5086 39.7321 54.3463 39.5562L53.1195 38.2285C52.9571 38.0526 52.9675 37.7779 53.1434 37.6156C53.2662 37.5022 53.4379 37.473 53.5846 37.5261H53.5856Z" fill="#BFC0CB"/>
<path d="M58.7796 36.6949C58.9211 36.7459 59.0314 36.8686 59.0595 37.0268C59.1011 37.262 58.945 37.4878 58.7088 37.5294L56.9295 37.8478C56.6943 37.8894 56.4685 37.7323 56.4269 37.4971C56.3853 37.262 56.5413 37.0362 56.7775 36.9945L58.5569 36.6761C58.6339 36.6626 58.7109 36.6699 58.7796 36.6949Z" fill="#BFC0CB"/>
<path d="M61.7112 36.9351C61.8527 36.9861 61.963 37.1089 61.9911 37.267C62.0327 37.5022 61.8767 37.728 61.6405 37.7696L59.8611 38.088C59.6259 38.1297 59.4001 37.9725 59.3585 37.7374C59.3169 37.5022 59.473 37.2764 59.7092 37.2348L61.4885 36.9164C61.5655 36.9028 61.6425 36.9101 61.7112 36.9351Z" fill="#BFC0CB"/>
<path d="M63.344 39.4336C63.4855 39.4846 63.5958 39.6074 63.6239 39.7656C63.6656 40.0007 63.5095 40.2265 63.2733 40.2682L61.4939 40.5866C61.2588 40.6282 61.033 40.4711 60.9913 40.2359C60.9497 40.0007 61.1058 39.7749 61.342 39.7333L63.1213 39.4149C63.1983 39.4014 63.2753 39.4087 63.344 39.4336Z" fill="#BFC0CB"/>
<path d="M68.1443 35.0498C68.2858 35.1008 68.3961 35.2236 68.4242 35.3818C68.4658 35.6169 68.3098 35.8427 68.0736 35.8844L66.2942 36.2028C66.059 36.2444 65.8333 36.0883 65.7916 35.8521C65.75 35.617 65.9061 35.3912 66.1423 35.3495L67.9216 35.0311C67.9986 35.0176 68.0756 35.0249 68.1443 35.0498Z" fill="#BFC0CB"/>
<path d="M68.9629 36.6836C69.1044 36.7346 69.2147 36.8574 69.2428 37.0156C69.2844 37.2507 69.1284 37.4765 68.8922 37.5182L67.1128 37.8366C66.8777 37.8782 66.6519 37.7221 66.6102 37.4859C66.5686 37.2507 66.7247 37.0249 66.9609 36.9833L68.7402 36.6649C68.8172 36.6514 68.8942 36.6587 68.9629 36.6836Z" fill="#BFC0CB"/>
<path d="M65.0684 36.0103C65.2099 36.0613 65.3202 36.1841 65.3483 36.3422C65.3899 36.5774 65.2338 36.8032 64.9976 36.8448L63.2183 37.1632C62.9831 37.2049 62.7573 37.0488 62.7157 36.8126C62.6741 36.5774 62.8302 36.3516 63.0664 36.31L64.8457 35.9916C64.9227 35.978 64.9997 35.9853 65.0684 36.0103Z" fill="#BFC0CB"/>
<path d="M66.4629 33.6568C66.6044 33.7078 66.7147 33.8306 66.7428 33.9887C66.7844 34.2239 66.6284 34.4497 66.3922 34.4913L64.6128 34.8097C64.3777 34.8513 64.1519 34.6953 64.1102 34.459C64.0686 34.2239 64.2247 33.9981 64.4609 33.9565L66.2402 33.6381C66.3172 33.6245 66.3942 33.6318 66.4629 33.6568Z" fill="#BFC0CB"/>
<path d="M58.885 34.4024C58.9131 34.4128 58.9412 34.4253 58.9672 34.4419L60.5021 35.3961C60.705 35.5231 60.7674 35.7895 60.6415 35.9934C60.5145 36.1963 60.2461 36.2587 60.0442 36.1328L58.5094 35.1787C58.3065 35.0517 58.2441 34.7853 58.37 34.5814C58.4803 34.4045 58.6967 34.3348 58.885 34.4024Z" fill="#BFC0CB"/>
<path d="M49.6177 42.3691C49.6177 50.0161 54.1066 56.6132 60.5934 59.6714V62.2593C60.5934 62.8576 61.0783 63.3425 61.6766 63.3425H75.799C76.3973 63.3425 76.8822 62.8576 76.8822 62.2593V59.6714C83.368 56.6132 87.8579 50.0161 87.8579 42.3691H49.6177Z" fill="#D70036"/>
<path d="M57.0567 35.4807C57.0619 35.5473 57.0526 35.617 57.0245 35.6836L56.3231 37.3495C56.2305 37.5701 55.9766 37.6741 55.756 37.5805C55.5354 37.4879 55.4314 37.2329 55.525 37.0134L56.2264 35.3475C56.319 35.1269 56.5729 35.0228 56.7935 35.1165C56.9475 35.181 57.0453 35.3256 57.0578 35.4817L57.0567 35.4807Z" fill="#BFC0CB"/>
<path d="M69.9078 33.7863C69.913 33.8529 69.9036 33.9226 69.8755 33.9892L69.1742 35.6552C69.0816 35.8758 68.8277 35.9798 68.6071 35.8862C68.3865 35.7935 68.2825 35.5386 68.3761 35.3191L69.0774 33.6531C69.1701 33.4325 69.4239 33.3285 69.6445 33.4221C69.7985 33.4866 69.8964 33.6313 69.9088 33.7874L69.9078 33.7863Z" fill="white"/>
<path d="M65.244 32.2009C65.2492 32.2675 65.2398 32.3372 65.2117 32.4038L64.5104 34.0697C64.4178 34.2903 64.1639 34.3944 63.9433 34.3007C63.7227 34.2081 63.6186 33.9532 63.7123 33.7336L64.4136 32.0677C64.5062 31.8471 64.7601 31.743 64.9807 31.8367C65.1347 31.9012 65.2325 32.0458 65.245 32.2019L65.244 32.2009Z" fill="#BFC0CB"/>
<path d="M60.1523 38.3996C60.1575 38.4662 60.1481 38.5359 60.1201 38.6025L59.4187 40.2684C59.3261 40.489 59.0722 40.5931 58.8516 40.4994C58.631 40.4068 58.527 40.1519 58.6206 39.9323L59.3219 38.2664C59.4146 38.0458 59.6685 37.9418 59.889 38.0354C60.0431 38.0999 60.1409 38.2446 60.1533 38.4006L60.1523 38.3996Z" fill="#BFC0CB"/>
</g>
<defs>
<clipPath id="clip0_218_871">
<rect width="30.7016" height="50.3508" fill="white" transform="translate(29.9991 12.6909)"/>
</clipPath>
<clipPath id="clip1_218_871">
<rect width="38.2403" height="50.8143" fill="white" transform="translate(49.6177 12.5293)"/>
</clipPath>
</defs>
</svg>
